<?xml version="1.0" encoding="utf-8" standalone="no"?>
<!DOCTYPE svg PUBLIC "-//W3C//DTD SVG 1.1//EN"
  "http://www.w3.org/Graphics/SVG/1.1/DTD/svg11.dtd">
<!-- Created with matplotlib (https://matplotlib.org/) -->
<svg height="288pt" version="1.1" viewBox="0 0 432 288" width="432pt" xmlns="http://www.w3.org/2000/svg" xmlns:xlink="http://www.w3.org/1999/xlink">
 <metadata>
  <rdf:RDF xmlns:cc="http://creativecommons.org/ns#" xmlns:dc="http://purl.org/dc/elements/1.1/" xmlns:rdf="http://www.w3.org/1999/02/22-rdf-syntax-ns#">
   <cc:Work>
    <dc:type rdf:resource="http://purl.org/dc/dcmitype/StillImage"/>
    <dc:date>2021-10-24T09:58:58.800495</dc:date>
    <dc:format>image/svg+xml</dc:format>
    <dc:creator>
     <cc:Agent>
      <dc:title>Matplotlib v3.3.4, https://matplotlib.org/</dc:title>
     </cc:Agent>
    </dc:creator>
   </cc:Work>
  </rdf:RDF>
 </metadata>
 <defs>
  <style type="text/css">*{stroke-linecap:butt;stroke-linejoin:round;}</style>
 </defs>
 <g id="figure_1">
  <g id="patch_1">
   <path d="M 0 288 
L 432 288 
L 432 0 
L 0 0 
z
" style="fill:#ffffff;"/>
  </g>
  <g id="axes_1">
   <g id="patch_2">
    <path d="M 54 256.32 
L 388.8 256.32 
L 388.8 34.56 
L 54 34.56 
z
" style="fill:#ffffff;"/>
   </g>
   <g id="matplotlib.axis_1">
    <g id="xtick_1">
     <g id="line2d_1">
      <defs>
       <path d="M 0 0 
L 0 3.5 
" id="m3f6c9a3fc1" style="stroke:#000000;stroke-width:0.8;"/>
      </defs>
      <g>
       <use style="stroke:#000000;stroke-width:0.8;" x="57.282353" xlink:href="#m3f6c9a3fc1" y="256.32"/>
      </g>
     </g>
     <g id="text_1">
      <!-- 0.00 -->
      <g transform="translate(37.24329 276.997187)scale(0.18 -0.18)">
       <defs>
        <path d="M 31.78125 66.40625 
Q 24.171875 66.40625 20.328125 58.90625 
Q 16.5 51.421875 16.5 36.375 
Q 16.5 21.390625 20.328125 13.890625 
Q 24.171875 6.390625 31.78125 6.390625 
Q 39.453125 6.390625 43.28125 13.890625 
Q 47.125 21.390625 47.125 36.375 
Q 47.125 51.421875 43.28125 58.90625 
Q 39.453125 66.40625 31.78125 66.40625 
z
M 31.78125 74.21875 
Q 44.046875 74.21875 50.515625 64.515625 
Q 56.984375 54.828125 56.984375 36.375 
Q 56.984375 17.96875 50.515625 8.265625 
Q 44.046875 -1.421875 31.78125 -1.421875 
Q 19.53125 -1.421875 13.0625 8.265625 
Q 6.59375 17.96875 6.59375 36.375 
Q 6.59375 54.828125 13.0625 64.515625 
Q 19.53125 74.21875 31.78125 74.21875 
z
" id="DejaVuSans-48"/>
        <path d="M 10.6875 12.40625 
L 21 12.40625 
L 21 0 
L 10.6875 0 
z
" id="DejaVuSans-46"/>
       </defs>
       <use xlink:href="#DejaVuSans-48"/>
       <use x="63.623047" xlink:href="#DejaVuSans-46"/>
       <use x="95.410156" xlink:href="#DejaVuSans-48"/>
       <use x="159.033203" xlink:href="#DejaVuSans-48"/>
      </g>
     </g>
    </g>
    <g id="xtick_2">
     <g id="line2d_2">
      <g>
       <use style="stroke:#000000;stroke-width:0.8;" x="139.341176" xlink:href="#m3f6c9a3fc1" y="256.32"/>
      </g>
     </g>
     <g id="text_2">
      <!-- 0.25 -->
      <g transform="translate(119.302114 276.997187)scale(0.18 -0.18)">
       <defs>
        <path d="M 19.1875 8.296875 
L 53.609375 8.296875 
L 53.609375 0 
L 7.328125 0 
L 7.328125 8.296875 
Q 12.9375 14.109375 22.625 23.890625 
Q 32.328125 33.6875 34.8125 36.53125 
Q 39.546875 41.84375 41.421875 45.53125 
Q 43.3125 49.21875 43.3125 52.78125 
Q 43.3125 58.59375 39.234375 62.25 
Q 35.15625 65.921875 28.609375 65.921875 
Q 23.96875 65.921875 18.8125 64.3125 
Q 13.671875 62.703125 7.8125 59.421875 
L 7.8125 69.390625 
Q 13.765625 71.78125 18.9375 73 
Q 24.125 74.21875 28.421875 74.21875 
Q 39.75 74.21875 46.484375 68.546875 
Q 53.21875 62.890625 53.21875 53.421875 
Q 53.21875 48.921875 51.53125 44.890625 
Q 49.859375 40.875 45.40625 35.40625 
Q 44.1875 33.984375 37.640625 27.21875 
Q 31.109375 20.453125 19.1875 8.296875 
z
" id="DejaVuSans-50"/>
        <path d="M 10.796875 72.90625 
L 49.515625 72.90625 
L 49.515625 64.59375 
L 19.828125 64.59375 
L 19.828125 46.734375 
Q 21.96875 47.46875 24.109375 47.828125 
Q 26.265625 48.1875 28.421875 48.1875 
Q 40.625 48.1875 47.75 41.5 
Q 54.890625 34.8125 54.890625 23.390625 
Q 54.890625 11.625 47.5625 5.09375 
Q 40.234375 -1.421875 26.90625 -1.421875 
Q 22.3125 -1.421875 17.546875 -0.640625 
Q 12.796875 0.140625 7.71875 1.703125 
L 7.71875 11.625 
Q 12.109375 9.234375 16.796875 8.0625 
Q 21.484375 6.890625 26.703125 6.890625 
Q 35.15625 6.890625 40.078125 11.328125 
Q 45.015625 15.765625 45.015625 23.390625 
Q 45.015625 31 40.078125 35.4375 
Q 35.15625 39.890625 26.703125 39.890625 
Q 22.75 39.890625 18.8125 39.015625 
Q 14.890625 38.140625 10.796875 36.28125 
z
" id="DejaVuSans-53"/>
       </defs>
       <use xlink:href="#DejaVuSans-48"/>
       <use x="63.623047" xlink:href="#DejaVuSans-46"/>
       <use x="95.410156" xlink:href="#DejaVuSans-50"/>
       <use x="159.033203" xlink:href="#DejaVuSans-53"/>
      </g>
     </g>
    </g>
    <g id="xtick_3">
     <g id="line2d_3">
      <g>
       <use style="stroke:#000000;stroke-width:0.8;" x="221.4" xlink:href="#m3f6c9a3fc1" y="256.32"/>
      </g>
     </g>
     <g id="text_3">
      <!-- 0.50 -->
      <g transform="translate(201.360938 276.997187)scale(0.18 -0.18)">
       <use xlink:href="#DejaVuSans-48"/>
       <use x="63.623047" xlink:href="#DejaVuSans-46"/>
       <use x="95.410156" xlink:href="#DejaVuSans-53"/>
       <use x="159.033203" xlink:href="#DejaVuSans-48"/>
      </g>
     </g>
    </g>
    <g id="xtick_4">
     <g id="line2d_4">
      <g>
       <use style="stroke:#000000;stroke-width:0.8;" x="303.458824" xlink:href="#m3f6c9a3fc1" y="256.32"/>
      </g>
     </g>
     <g id="text_4">
      <!-- 0.75 -->
      <g transform="translate(283.419761 276.997187)scale(0.18 -0.18)">
       <defs>
        <path d="M 8.203125 72.90625 
L 55.078125 72.90625 
L 55.078125 68.703125 
L 28.609375 0 
L 18.3125 0 
L 43.21875 64.59375 
L 8.203125 64.59375 
z
" id="DejaVuSans-55"/>
       </defs>
       <use xlink:href="#DejaVuSans-48"/>
       <use x="63.623047" xlink:href="#DejaVuSans-46"/>
       <use x="95.410156" xlink:href="#DejaVuSans-55"/>
       <use x="159.033203" xlink:href="#DejaVuSans-53"/>
      </g>
     </g>
    </g>
    <g id="xtick_5">
     <g id="line2d_5">
      <g>
       <use style="stroke:#000000;stroke-width:0.8;" x="385.517647" xlink:href="#m3f6c9a3fc1" y="256.32"/>
      </g>
     </g>
     <g id="text_5">
      <!-- 1.00 -->
      <g transform="translate(365.478585 276.997187)scale(0.18 -0.18)">
       <defs>
        <path d="M 12.40625 8.296875 
L 28.515625 8.296875 
L 28.515625 63.921875 
L 10.984375 60.40625 
L 10.984375 69.390625 
L 28.421875 72.90625 
L 38.28125 72.90625 
L 38.28125 8.296875 
L 54.390625 8.296875 
L 54.390625 0 
L 12.40625 0 
z
" id="DejaVuSans-49"/>
       </defs>
       <use xlink:href="#DejaVuSans-49"/>
       <use x="63.623047" xlink:href="#DejaVuSans-46"/>
       <use x="95.410156" xlink:href="#DejaVuSans-48"/>
       <use x="159.033203" xlink:href="#DejaVuSans-48"/>
      </g>
     </g>
    </g>
    <g id="text_6">
     <!-- False Positive Rate -->
     <g transform="translate(156.347031 295.378438)scale(0.14 -0.14)">
      <defs>
       <path d="M 9.8125 72.90625 
L 51.703125 72.90625 
L 51.703125 64.59375 
L 19.671875 64.59375 
L 19.671875 43.109375 
L 48.578125 43.109375 
L 48.578125 34.8125 
L 19.671875 34.8125 
L 19.671875 0 
L 9.8125 0 
z
" id="DejaVuSans-70"/>
       <path d="M 34.28125 27.484375 
Q 23.390625 27.484375 19.1875 25 
Q 14.984375 22.515625 14.984375 16.5 
Q 14.984375 11.71875 18.140625 8.90625 
Q 21.296875 6.109375 26.703125 6.109375 
Q 34.1875 6.109375 38.703125 11.40625 
Q 43.21875 16.703125 43.21875 25.484375 
L 43.21875 27.484375 
z
M 52.203125 31.203125 
L 52.203125 0 
L 43.21875 0 
L 43.21875 8.296875 
Q 40.140625 3.328125 35.546875 0.953125 
Q 30.953125 -1.421875 24.3125 -1.421875 
Q 15.921875 -1.421875 10.953125 3.296875 
Q 6 8.015625 6 15.921875 
Q 6 25.140625 12.171875 29.828125 
Q 18.359375 34.515625 30.609375 34.515625 
L 43.21875 34.515625 
L 43.21875 35.40625 
Q 43.21875 41.609375 39.140625 45 
Q 35.0625 48.390625 27.6875 48.390625 
Q 23 48.390625 18.546875 47.265625 
Q 14.109375 46.140625 10.015625 43.890625 
L 10.015625 52.203125 
Q 14.9375 54.109375 19.578125 55.046875 
Q 24.21875 56 28.609375 56 
Q 40.484375 56 46.34375 49.84375 
Q 52.203125 43.703125 52.203125 31.203125 
z
" id="DejaVuSans-97"/>
       <path d="M 9.421875 75.984375 
L 18.40625 75.984375 
L 18.40625 0 
L 9.421875 0 
z
" id="DejaVuSans-108"/>
       <path d="M 44.28125 53.078125 
L 44.28125 44.578125 
Q 40.484375 46.53125 36.375 47.5 
Q 32.28125 48.484375 27.875 48.484375 
Q 21.1875 48.484375 17.84375 46.4375 
Q 14.5 44.390625 14.5 40.28125 
Q 14.5 37.15625 16.890625 35.375 
Q 19.28125 33.59375 26.515625 31.984375 
L 29.59375 31.296875 
Q 39.15625 29.25 43.1875 25.515625 
Q 47.21875 21.78125 47.21875 15.09375 
Q 47.21875 7.46875 41.1875 3.015625 
Q 35.15625 -1.421875 24.609375 -1.421875 
Q 20.21875 -1.421875 15.453125 -0.5625 
Q 10.6875 0.296875 5.421875 2 
L 5.421875 11.28125 
Q 10.40625 8.6875 15.234375 7.390625 
Q 20.0625 6.109375 24.8125 6.109375 
Q 31.15625 6.109375 34.5625 8.28125 
Q 37.984375 10.453125 37.984375 14.40625 
Q 37.984375 18.0625 35.515625 20.015625 
Q 33.0625 21.96875 24.703125 23.78125 
L 21.578125 24.515625 
Q 13.234375 26.265625 9.515625 29.90625 
Q 5.8125 33.546875 5.8125 39.890625 
Q 5.8125 47.609375 11.28125 51.796875 
Q 16.75 56 26.8125 56 
Q 31.78125 56 36.171875 55.265625 
Q 40.578125 54.546875 44.28125 53.078125 
z
" id="DejaVuSans-115"/>
       <path d="M 56.203125 29.59375 
L 56.203125 25.203125 
L 14.890625 25.203125 
Q 15.484375 15.921875 20.484375 11.0625 
Q 25.484375 6.203125 34.421875 6.203125 
Q 39.59375 6.203125 44.453125 7.46875 
Q 49.3125 8.734375 54.109375 11.28125 
L 54.109375 2.78125 
Q 49.265625 0.734375 44.1875 -0.34375 
Q 39.109375 -1.421875 33.890625 -1.421875 
Q 20.796875 -1.421875 13.15625 6.1875 
Q 5.515625 13.8125 5.515625 26.8125 
Q 5.515625 40.234375 12.765625 48.109375 
Q 20.015625 56 32.328125 56 
Q 43.359375 56 49.78125 48.890625 
Q 56.203125 41.796875 56.203125 29.59375 
z
M 47.21875 32.234375 
Q 47.125 39.59375 43.09375 43.984375 
Q 39.0625 48.390625 32.421875 48.390625 
Q 24.90625 48.390625 20.390625 44.140625 
Q 15.875 39.890625 15.1875 32.171875 
z
" id="DejaVuSans-101"/>
       <path id="DejaVuSans-32"/>
       <path d="M 19.671875 64.796875 
L 19.671875 37.40625 
L 32.078125 37.40625 
Q 38.96875 37.40625 42.71875 40.96875 
Q 46.484375 44.53125 46.484375 51.125 
Q 46.484375 57.671875 42.71875 61.234375 
Q 38.96875 64.796875 32.078125 64.796875 
z
M 9.8125 72.90625 
L 32.078125 72.90625 
Q 44.34375 72.90625 50.609375 67.359375 
Q 56.890625 61.8125 56.890625 51.125 
Q 56.890625 40.328125 50.609375 34.8125 
Q 44.34375 29.296875 32.078125 29.296875 
L 19.671875 29.296875 
L 19.671875 0 
L 9.8125 0 
z
" id="DejaVuSans-80"/>
       <path d="M 30.609375 48.390625 
Q 23.390625 48.390625 19.1875 42.75 
Q 14.984375 37.109375 14.984375 27.296875 
Q 14.984375 17.484375 19.15625 11.84375 
Q 23.34375 6.203125 30.609375 6.203125 
Q 37.796875 6.203125 41.984375 11.859375 
Q 46.1875 17.53125 46.1875 27.296875 
Q 46.1875 37.015625 41.984375 42.703125 
Q 37.796875 48.390625 30.609375 48.390625 
z
M 30.609375 56 
Q 42.328125 56 49.015625 48.375 
Q 55.71875 40.765625 55.71875 27.296875 
Q 55.71875 13.875 49.015625 6.21875 
Q 42.328125 -1.421875 30.609375 -1.421875 
Q 18.84375 -1.421875 12.171875 6.21875 
Q 5.515625 13.875 5.515625 27.296875 
Q 5.515625 40.765625 12.171875 48.375 
Q 18.84375 56 30.609375 56 
z
" id="DejaVuSans-111"/>
       <path d="M 9.421875 54.6875 
L 18.40625 54.6875 
L 18.40625 0 
L 9.421875 0 
z
M 9.421875 75.984375 
L 18.40625 75.984375 
L 18.40625 64.59375 
L 9.421875 64.59375 
z
" id="DejaVuSans-105"/>
       <path d="M 18.3125 70.21875 
L 18.3125 54.6875 
L 36.8125 54.6875 
L 36.8125 47.703125 
L 18.3125 47.703125 
L 18.3125 18.015625 
Q 18.3125 11.328125 20.140625 9.421875 
Q 21.96875 7.515625 27.59375 7.515625 
L 36.8125 7.515625 
L 36.8125 0 
L 27.59375 0 
Q 17.1875 0 13.234375 3.875 
Q 9.28125 7.765625 9.28125 18.015625 
L 9.28125 47.703125 
L 2.6875 47.703125 
L 2.6875 54.6875 
L 9.28125 54.6875 
L 9.28125 70.21875 
z
" id="DejaVuSans-116"/>
       <path d="M 2.984375 54.6875 
L 12.5 54.6875 
L 29.59375 8.796875 
L 46.6875 54.6875 
L 56.203125 54.6875 
L 35.6875 0 
L 23.484375 0 
z
" id="DejaVuSans-118"/>
       <path d="M 44.390625 34.1875 
Q 47.5625 33.109375 50.5625 29.59375 
Q 53.5625 26.078125 56.59375 19.921875 
L 66.609375 0 
L 56 0 
L 46.6875 18.703125 
Q 43.0625 26.03125 39.671875 28.421875 
Q 36.28125 30.8125 30.421875 30.8125 
L 19.671875 30.8125 
L 19.671875 0 
L 9.8125 0 
L 9.8125 72.90625 
L 32.078125 72.90625 
Q 44.578125 72.90625 50.734375 67.671875 
Q 56.890625 62.453125 56.890625 51.90625 
Q 56.890625 45.015625 53.6875 40.46875 
Q 50.484375 35.9375 44.390625 34.1875 
z
M 19.671875 64.796875 
L 19.671875 38.921875 
L 32.078125 38.921875 
Q 39.203125 38.921875 42.84375 42.21875 
Q 46.484375 45.515625 46.484375 51.90625 
Q 46.484375 58.296875 42.84375 61.546875 
Q 39.203125 64.796875 32.078125 64.796875 
z
" id="DejaVuSans-82"/>
      </defs>
      <use xlink:href="#DejaVuSans-70"/>
      <use x="48.394531" xlink:href="#DejaVuSans-97"/>
      <use x="109.673828" xlink:href="#DejaVuSans-108"/>
      <use x="137.457031" xlink:href="#DejaVuSans-115"/>
      <use x="189.556641" xlink:href="#DejaVuSans-101"/>
      <use x="251.080078" xlink:href="#DejaVuSans-32"/>
      <use x="282.867188" xlink:href="#DejaVuSans-80"/>
      <use x="339.544922" xlink:href="#DejaVuSans-111"/>
      <use x="400.726562" xlink:href="#DejaVuSans-115"/>
      <use x="452.826172" xlink:href="#DejaVuSans-105"/>
      <use x="480.609375" xlink:href="#DejaVuSans-116"/>
      <use x="519.818359" xlink:href="#DejaVuSans-105"/>
      <use x="547.601562" xlink:href="#DejaVuSans-118"/>
      <use x="606.78125" xlink:href="#DejaVuSans-101"/>
      <use x="668.304688" xlink:href="#DejaVuSans-32"/>
      <use x="700.091797" xlink:href="#DejaVuSans-82"/>
      <use x="767.324219" xlink:href="#DejaVuSans-97"/>
      <use x="828.603516" xlink:href="#DejaVuSans-116"/>
      <use x="867.8125" xlink:href="#DejaVuSans-101"/>
     </g>
    </g>
   </g>
   <g id="matplotlib.axis_2">
    <g id="ytick_1">
     <g id="line2d_6">
      <defs>
       <path d="M 0 0 
L -3.5 0 
" id="m66fad024e9" style="stroke:#000000;stroke-width:0.8;"/>
      </defs>
      <g>
       <use style="stroke:#000000;stroke-width:0.8;" x="54" xlink:href="#m66fad024e9" y="254.145882"/>
      </g>
     </g>
     <g id="text_7">
      <!-- 0.00 -->
      <g transform="translate(6.921875 260.984476)scale(0.18 -0.18)">
       <use xlink:href="#DejaVuSans-48"/>
       <use x="63.623047" xlink:href="#DejaVuSans-46"/>
       <use x="95.410156" xlink:href="#DejaVuSans-48"/>
       <use x="159.033203" xlink:href="#DejaVuSans-48"/>
      </g>
     </g>
    </g>
    <g id="ytick_2">
     <g id="line2d_7">
      <g>
       <use style="stroke:#000000;stroke-width:0.8;" x="54" xlink:href="#m66fad024e9" y="199.792941"/>
      </g>
     </g>
     <g id="text_8">
      <!-- 0.25 -->
      <g transform="translate(6.921875 206.631535)scale(0.18 -0.18)">
       <use xlink:href="#DejaVuSans-48"/>
       <use x="63.623047" xlink:href="#DejaVuSans-46"/>
       <use x="95.410156" xlink:href="#DejaVuSans-50"/>
       <use x="159.033203" xlink:href="#DejaVuSans-53"/>
      </g>
     </g>
    </g>
    <g id="ytick_3">
     <g id="line2d_8">
      <g>
       <use style="stroke:#000000;stroke-width:0.8;" x="54" xlink:href="#m66fad024e9" y="145.44"/>
      </g>
     </g>
     <g id="text_9">
      <!-- 0.50 -->
      <g transform="translate(6.921875 152.278594)scale(0.18 -0.18)">
       <use xlink:href="#DejaVuSans-48"/>
       <use x="63.623047" xlink:href="#DejaVuSans-46"/>
       <use x="95.410156" xlink:href="#DejaVuSans-53"/>
       <use x="159.033203" xlink:href="#DejaVuSans-48"/>
      </g>
     </g>
    </g>
    <g id="ytick_4">
     <g id="line2d_9">
      <g>
       <use style="stroke:#000000;stroke-width:0.8;" x="54" xlink:href="#m66fad024e9" y="91.087059"/>
      </g>
     </g>
     <g id="text_10">
      <!-- 0.75 -->
      <g transform="translate(6.921875 97.925653)scale(0.18 -0.18)">
       <use xlink:href="#DejaVuSans-48"/>
       <use x="63.623047" xlink:href="#DejaVuSans-46"/>
       <use x="95.410156" xlink:href="#DejaVuSans-55"/>
       <use x="159.033203" xlink:href="#DejaVuSans-53"/>
      </g>
     </g>
    </g>
    <g id="ytick_5">
     <g id="line2d_10">
      <g>
       <use style="stroke:#000000;stroke-width:0.8;" x="54" xlink:href="#m66fad024e9" y="36.734118"/>
      </g>
     </g>
     <g id="text_11">
      <!-- 1.00 -->
      <g transform="translate(6.921875 43.572711)scale(0.18 -0.18)">
       <use xlink:href="#DejaVuSans-49"/>
       <use x="63.623047" xlink:href="#DejaVuSans-46"/>
       <use x="95.410156" xlink:href="#DejaVuSans-48"/>
       <use x="159.033203" xlink:href="#DejaVuSans-48"/>
      </g>
     </g>
    </g>
    <g id="text_12">
     <!-- True Positive Rate -->
     <g transform="translate(0.010312 207.781563)rotate(-90)scale(0.14 -0.14)">
      <defs>
       <path d="M -0.296875 72.90625 
L 61.375 72.90625 
L 61.375 64.59375 
L 35.5 64.59375 
L 35.5 0 
L 25.59375 0 
L 25.59375 64.59375 
L -0.296875 64.59375 
z
" id="DejaVuSans-84"/>
       <path d="M 41.109375 46.296875 
Q 39.59375 47.171875 37.8125 47.578125 
Q 36.03125 48 33.890625 48 
Q 26.265625 48 22.1875 43.046875 
Q 18.109375 38.09375 18.109375 28.8125 
L 18.109375 0 
L 9.078125 0 
L 9.078125 54.6875 
L 18.109375 54.6875 
L 18.109375 46.1875 
Q 20.953125 51.171875 25.484375 53.578125 
Q 30.03125 56 36.53125 56 
Q 37.453125 56 38.578125 55.875 
Q 39.703125 55.765625 41.0625 55.515625 
z
" id="DejaVuSans-114"/>
       <path d="M 8.5 21.578125 
L 8.5 54.6875 
L 17.484375 54.6875 
L 17.484375 21.921875 
Q 17.484375 14.15625 20.5 10.265625 
Q 23.53125 6.390625 29.59375 6.390625 
Q 36.859375 6.390625 41.078125 11.03125 
Q 45.3125 15.671875 45.3125 23.6875 
L 45.3125 54.6875 
L 54.296875 54.6875 
L 54.296875 0 
L 45.3125 0 
L 45.3125 8.40625 
Q 42.046875 3.421875 37.71875 1 
Q 33.40625 -1.421875 27.6875 -1.421875 
Q 18.265625 -1.421875 13.375 4.4375 
Q 8.5 10.296875 8.5 21.578125 
z
M 31.109375 56 
z
" id="DejaVuSans-117"/>
      </defs>
      <use xlink:href="#DejaVuSans-84"/>
      <use x="46.333984" xlink:href="#DejaVuSans-114"/>
      <use x="87.447266" xlink:href="#DejaVuSans-117"/>
      <use x="150.826172" xlink:href="#DejaVuSans-101"/>
      <use x="212.349609" xlink:href="#DejaVuSans-32"/>
      <use x="244.136719" xlink:href="#DejaVuSans-80"/>
      <use x="300.814453" xlink:href="#DejaVuSans-111"/>
      <use x="361.996094" xlink:href="#DejaVuSans-115"/>
      <use x="414.095703" xlink:href="#DejaVuSans-105"/>
      <use x="441.878906" xlink:href="#DejaVuSans-116"/>
      <use x="481.087891" xlink:href="#DejaVuSans-105"/>
      <use x="508.871094" xlink:href="#DejaVuSans-118"/>
      <use x="568.050781" xlink:href="#DejaVuSans-101"/>
      <use x="629.574219" xlink:href="#DejaVuSans-32"/>
      <use x="661.361328" xlink:href="#DejaVuSans-82"/>
      <use x="728.59375" xlink:href="#DejaVuSans-97"/>
      <use x="789.873047" xlink:href="#DejaVuSans-116"/>
      <use x="829.082031" xlink:href="#DejaVuSans-101"/>
     </g>
    </g>
   </g>
   <g id="line2d_11">
    <path clip-path="url(#pc2393c8586)" d="M 57.282353 254.145882 
L 57.283694 254.145882 
L 57.374908 252.961538 
L 57.401736 252.961538 
L 57.51173 252.28477 
L 57.553312 252.28477 
L 57.661965 251.777194 
L 57.66733 251.777194 
L 57.743789 250.762042 
L 57.79342 250.762042 
L 57.902072 249.577697 
L 57.939631 249.577697 
L 58.046942 248.900929 
L 58.160959 248.900929 
L 58.264246 247.885777 
L 58.280343 247.885777 
L 58.340705 247.039817 
L 58.402408 247.039817 
L 58.454722 246.363049 
L 58.523133 246.363049 
L 58.623737 245.686281 
L 58.638492 245.686281 
L 58.744461 245.178705 
L 58.787386 245.178705 
L 58.866527 244.84032 
L 58.942986 244.84032 
L 58.993959 243.99436 
L 59.063711 243.99436 
L 59.165656 243.655976 
L 59.185777 243.655976 
L 59.267601 242.810016 
L 59.416495 242.810016 
L 59.433933 242.471632 
L 59.549292 242.471632 
L 59.64453 241.794864 
L 59.773303 241.794864 
L 59.806837 241.287288 
L 59.885979 241.287288 
L 59.989266 240.779712 
L 60.060359 240.779712 
L 60.169011 239.764559 
L 60.18779 239.764559 
L 60.238763 239.426175 
L 60.321929 239.426175 
L 60.321929 239.256983 
L 60.469481 239.256983 
L 60.469481 239.087791 
L 60.686785 239.087791 
L 60.760561 238.580215 
L 60.8558 238.580215 
L 60.8558 238.411023 
L 61.031521 238.411023 
L 61.031521 238.241831 
L 61.171025 238.241831 
L 61.242118 237.734255 
L 61.378939 237.734255 
L 61.483567 237.395871 
L 61.487591 237.395871 
L 61.526492 237.395871 
L 61.526492 237.226679 
L 61.683433 237.226679 
L 61.75721 236.549911 
L 61.855131 236.549911 
L 61.939638 235.873143 
L 61.991952 235.873143 
L 61.991952 235.703951 
L 62.118042 235.703951 
L 62.18377 235.196374 
L 62.414488 235.196374 
L 62.486922 234.688798 
L 62.815561 234.688798 
L 62.904093 234.01203 
L 63.022135 234.01203 
L 63.03689 233.504454 
L 63.191149 233.504454 
L 63.27968 232.996878 
L 63.433939 232.996878 
L 63.451377 232.658494 
L 63.581492 232.658494 
L 63.68612 232.150918 
L 63.742458 232.150918 
L 63.818917 231.812534 
L 63.918179 231.812534 
L 64.02549 230.62819 
L 64.122069 230.62819 
L 64.207918 230.120613 
L 64.242794 230.120613 
L 64.315229 229.443845 
L 64.423881 229.443845 
L 64.525826 228.936269 
L 64.551312 228.936269 
L 64.567409 228.428693 
L 64.708254 228.428693 
L 64.749837 228.090309 
L 64.841051 228.090309 
L 64.867879 227.751925 
L 64.975189 227.751925 
L 65.028845 227.244349 
L 65.1214 227.244349 
L 65.164325 226.905965 
L 65.18847 226.905965 
L 65.244808 226.905965 
L 65.31456 226.398389 
L 65.43126 226.398389 
L 65.43126 226.229197 
L 65.582836 226.229197 
L 65.611005 225.890813 
L 65.729047 225.890813 
L 65.830992 225.214044 
L 65.910134 225.214044 
L 65.910134 225.044852 
L 66.057686 225.044852 
L 66.057686 224.87566 
L 66.164997 224.87566 
L 66.24548 224.87566 
L 66.34206 224.537276 
L 66.383643 224.537276 
L 66.383643 224.368084 
L 66.553998 224.368084 
L 66.655943 223.691316 
L 66.682771 223.691316 
L 66.682771 223.522124 
L 66.773985 223.522124 
L 66.874589 223.522124 
L 66.967145 222.845356 
L 67.031531 222.845356 
L 67.093235 222.168588 
L 67.169694 222.168588 
L 67.169694 221.999396 
L 67.428581 221.999396 
L 67.509064 221.661012 
L 67.562719 221.661012 
L 67.672712 220.984244 
L 67.684785 220.984244 
L 67.716978 220.476667 
L 67.775999 220.476667 
L 67.828313 220.476667 
L 67.828313 220.307475 
L 67.997327 220.307475 
L 68.0872 219.630707 
L 68.280359 219.630707 
L 68.347429 219.123131 
L 68.398401 219.123131 
L 68.482908 218.784747 
L 68.51376 218.784747 
L 68.51376 218.615555 
L 68.673385 218.615555 
L 68.771306 217.769595 
L 68.898737 217.769595 
L 68.98861 217.431211 
L 69.032876 217.431211 
L 69.10531 216.923635 
L 69.364198 216.923635 
L 69.387001 216.585251 
L 69.482239 216.585251 
L 69.588209 216.246867 
L 69.690154 216.246867 
L 69.77332 215.908482 
L 70.075131 215.908482 
L 70.147566 215.570098 
L 70.155614 215.570098 
L 70.211952 215.570098 
L 70.211952 215.400906 
L 70.382308 215.400906 
L 70.418525 215.062522 
L 70.580833 215.062522 
L 70.663999 214.554946 
L 70.751188 214.554946 
L 70.795454 214.216562 
L 70.886668 214.216562 
L 70.92691 213.708986 
L 71.061048 213.708986 
L 71.132142 213.370602 
L 71.246159 213.370602 
L 71.336032 212.863026 
L 71.427246 212.863026 
L 71.472853 212.524642 
L 71.716985 212.524642 
L 71.716985 212.35545 
L 71.975872 212.35545 
L 72.020138 211.847874 
L 72.028186 211.847874 
L 72.210614 211.847874 
L 72.210614 211.678682 
L 72.217321 211.678682 
L 72.363532 211.678682 
L 72.462794 211.340298 
L 72.511084 211.340298 
L 72.511084 211.171106 
L 72.570105 211.171106 
L 72.661319 211.171106 
L 72.669367 210.832721 
L 72.838382 210.832721 
L 72.866551 210.325145 
L 73.175069 210.325145 
L 73.268966 209.648377 
L 73.32128 209.648377 
L 73.340059 209.309993 
L 73.513098 209.309993 
L 73.557364 208.802417 
L 73.627116 208.802417 
L 73.627116 208.633225 
L 73.808202 208.633225 
L 73.808202 208.464033 
L 73.894051 208.464033 
L 73.927586 208.464033 
L 73.927586 208.294841 
L 74.072455 208.294841 
L 74.175742 207.787265 
L 74.486943 207.787265 
L 74.545963 207.448881 
L 74.614374 207.448881 
L 74.614374 207.279689 
L 74.725709 207.279689 
L 74.826313 206.772113 
L 74.917527 206.772113 
L 74.99801 206.264537 
L 75.160317 206.264537 
L 75.160317 206.095344 
L 75.318601 206.095344 
L 75.380304 205.75696 
L 75.471518 205.75696 
L 75.471518 205.587768 
L 75.584195 205.587768 
L 75.584195 205.418576 
L 75.674067 205.418576 
L 75.767964 205.418576 
L 75.767964 205.249384 
L 75.85113 205.249384 
L 75.896737 205.249384 
L 75.903444 204.911 
L 76.084531 204.911 
L 76.092579 204.572616 
L 76.236107 204.572616 
L 76.236107 204.403424 
L 76.347442 204.403424 
L 76.456094 203.895848 
L 76.509749 203.895848 
L 76.540601 203.388272 
L 76.700226 203.388272 
L 76.786075 203.049888 
L 76.855827 203.049888 
L 76.922896 202.711504 
L 76.972527 202.711504 
L 76.972527 202.542312 
L 77.05301 202.542312 
L 77.218 202.542312 
L 77.298483 202.034736 
L 77.30519 202.034736 
L 77.586881 202.034736 
L 77.635171 201.696352 
L 77.704923 201.696352 
L 77.704923 201.52716 
L 77.969175 201.52716 
L 78.060389 201.188775 
L 78.256231 201.188775 
L 78.336714 200.512007 
L 78.418539 200.512007 
L 78.494998 200.173623 
L 78.600967 200.173623 
L 78.600967 200.004431 
L 78.749861 200.004431 
L 78.820954 199.496855 
L 78.898754 199.496855 
L 78.920216 198.989279 
L 79.106669 198.989279 
L 79.177762 198.650895 
L 79.384335 198.650895 
L 79.391042 198.312511 
L 79.436649 198.312511 
L 79.509084 198.312511 
L 79.509084 198.143319 
L 79.729071 198.143319 
L 79.776019 197.804935 
L 79.920889 197.804935 
L 79.920889 197.635743 
L 80.325987 197.635743 
L 80.414518 197.128167 
L 80.477563 197.128167 
L 80.57146 196.789783 
L 80.641212 196.789783 
L 80.700233 196.282206 
L 80.780716 196.282206 
L 80.780716 196.113014 
L 81.050334 196.113014 
L 81.145572 195.77463 
L 81.267638 195.77463 
L 81.352145 195.267054 
L 81.546646 195.267054 
L 81.656639 194.92867 
L 81.660664 194.92867 
L 81.660664 194.759478 
L 81.816264 194.759478 
L 81.816264 194.590286 
L 81.94772 194.590286 
L 81.94772 194.421094 
L 81.954427 194.421094 
L 82.170389 194.421094 
L 82.171731 194.08271 
L 82.359525 194.08271 
L 82.45208 193.575134 
L 82.603656 193.575134 
L 82.686822 193.067558 
L 82.882664 193.067558 
L 82.953758 192.729174 
L 83.038265 192.729174 
L 83.044972 192.39079 
L 83.157648 192.39079 
L 83.157648 192.221598 
L 83.281055 192.221598 
L 83.281055 192.052406 
L 83.405804 192.052406 
L 83.490311 191.544829 
L 83.521163 191.544829 
L 83.521163 191.375637 
L 83.788098 191.375637 
L 83.805536 191.037253 
L 84.096617 191.037253 
L 84.116737 190.529677 
L 84.433304 190.529677 
L 84.541956 190.022101 
L 84.547322 190.022101 
L 84.570125 189.683717 
L 84.94303 189.683717 
L 84.988637 189.345333 
L 85.07851 189.345333 
L 85.168382 188.837757 
L 85.459463 188.837757 
L 85.462145 188.499373 
L 85.828343 188.499373 
L 85.886023 187.991797 
L 86.044306 187.991797 
L 86.140886 187.653413 
L 86.163689 187.653413 
L 86.246855 187.315029 
L 86.44538 187.315029 
L 86.528546 186.807453 
L 86.544642 186.807453 
L 86.61037 186.807453 
L 86.713657 186.469068 
L 86.961813 186.469068 
L 86.961813 186.299876 
L 87.121437 186.299876 
L 87.121437 186.130684 
L 87.219358 186.130684 
L 87.515804 186.130684 
L 87.515804 185.961492 
L 87.564094 185.961492 
L 87.62848 185.961492 
L 87.648601 185.623108 
L 87.761277 185.623108 
L 87.761277 185.453916 
L 87.949071 185.453916 
L 87.949071 185.115532 
L 88.088575 185.115532 
L 88.174424 184.607956 
L 88.252224 184.607956 
L 88.299172 184.269572 
L 88.417214 184.269572 
L 88.445383 183.931188 
L 88.631836 183.931188 
L 88.63586 183.592804 
L 88.75256 183.592804 
L 88.862554 183.085228 
L 88.949744 183.085228 
L 89.049006 182.746844 
L 89.114734 182.746844 
L 89.180462 182.40846 
L 89.193875 182.40846 
L 89.342769 182.40846 
L 89.376304 182.070076 
L 89.403131 182.070076 
L 89.463494 182.070076 
L 89.463494 181.900883 
L 89.58556 181.900883 
L 89.58556 181.731691 
L 89.820302 181.731691 
L 89.859202 181.393307 
L 90.005413 181.393307 
L 90.115406 181.054923 
L 90.348807 181.054923 
L 90.379659 180.716539 
L 90.441362 180.716539 
L 90.607694 180.716539 
L 90.607694 180.547347 
L 90.67208 180.547347 
L 90.877312 180.547347 
L 90.879995 180.208963 
L 91.236803 180.208963 
L 91.236803 180.039771 
L 91.431304 180.039771 
L 91.431304 179.870579 
L 91.639218 179.870579 
L 91.639218 179.701387 
L 91.966516 179.701387 
L 91.966516 179.532195 
L 92.077851 179.532195 
L 92.124799 179.024619 
L 92.252231 179.024619 
L 92.252231 178.855427 
L 92.313934 178.855427 
L 92.468194 178.855427 
L 92.567456 178.517043 
L 92.599649 178.517043 
L 92.69757 177.840275 
L 92.712325 177.840275 
L 92.765981 177.501891 
L 93.35619 177.501891 
L 93.455452 177.163507 
L 93.468866 177.163507 
L 93.562763 176.65593 
L 93.916888 176.65593 
L 93.916888 176.317546 
L 93.924936 176.317546 
L 94.076513 176.317546 
L 94.144923 175.979162 
L 94.254917 175.979162 
L 94.307231 175.640778 
L 94.372959 175.640778 
L 94.372959 175.471586 
L 94.540632 175.471586 
L 94.540632 175.302394 
L 94.716353 175.302394 
L 94.806226 174.794818 
L 94.835736 174.794818 
L 94.835736 174.625626 
L 95.129499 174.625626 
L 95.129499 174.456434 
L 95.251565 174.456434 
L 95.251565 174.287242 
L 95.361559 174.287242 
L 95.413873 174.287242 
L 95.475576 173.779666 
L 95.511794 173.779666 
L 95.554718 173.779666 
L 95.641908 173.102898 
L 95.809581 173.102898 
L 95.899453 172.595322 
L 96.102002 172.595322 
L 96.111392 172.256938 
L 96.460152 172.256938 
L 96.481614 171.918553 
L 96.540635 171.918553 
L 97.046337 171.918553 
L 97.046337 171.749361 
L 97.063775 171.749361 
L 97.163037 171.749361 
L 97.259617 171.241785 
L 97.374976 171.241785 
L 97.374976 171.072593 
L 97.682153 171.072593 
L 97.722394 170.734209 
L 97.751905 170.734209 
L 97.843119 170.734209 
L 97.843119 170.565017 
L 97.981281 170.565017 
L 97.981281 170.395825 
L 98.191879 170.395825 
L 98.229437 170.057441 
L 98.252241 170.057441 
L 98.527224 170.057441 
L 98.527224 169.888249 
L 98.566125 169.888249 
L 98.720384 169.888249 
L 98.818305 169.380673 
L 98.921591 169.380673 
L 98.921591 169.211481 
L 99.044999 169.211481 
L 99.044999 169.042289 
L 99.248889 169.042289 
L 99.25023 168.873097 
L 99.396441 168.873097 
L 99.487655 168.534713 
L 99.546676 168.534713 
L 99.546676 168.365521 
L 99.699594 168.365521 
L 99.738494 168.027137 
L 99.883364 168.027137 
L 99.963847 167.519561 
L 100.037623 167.519561 
L 100.071157 167.181176 
L 100.203954 167.181176 
L 100.279072 166.842792 
L 101.09195 166.842792 
L 101.09195 166.6736 
L 101.337424 166.6736 
L 101.432662 166.335216 
L 101.656673 166.335216 
L 101.656673 166.166024 
L 101.69289 166.166024 
L 101.955802 166.166024 
L 101.982629 165.82764 
L 102.069819 165.82764 
L 102.17713 165.320064 
L 102.285782 165.320064 
L 102.285782 165.150872 
L 102.831725 165.150872 
L 102.933671 164.812488 
L 102.94306 164.812488 
L 102.944402 164.643296 
L 103.181827 164.643296 
L 103.181827 164.474104 
L 103.609728 164.474104 
L 103.609728 164.304912 
L 103.67948 164.304912 
L 103.759963 164.304912 
L 103.759963 164.13572 
L 103.884712 164.13572 
L 103.993364 163.628144 
L 104.295175 163.628144 
L 104.303223 163.28976 
L 104.450776 163.28976 
L 104.450776 163.120568 
L 104.834411 163.120568 
L 104.88136 162.612992 
L 104.904163 162.612992 
L 105.17244 162.612992 
L 105.17244 162.443799 
L 105.289141 162.443799 
L 105.342796 162.105415 
L 105.755942 162.105415 
L 105.755942 161.936223 
L 105.82167 161.936223 
L 105.884715 161.936223 
L 105.884715 161.767031 
L 106.304568 161.767031 
L 106.304568 161.597839 
L 106.588942 161.597839 
L 106.664059 161.259455 
L 106.831732 161.259455 
L 106.904167 160.921071 
L 106.93636 160.921071 
L 106.959164 160.921071 
L 107.022209 160.244303 
L 107.05306 160.244303 
L 107.342799 160.244303 
L 107.377675 159.736727 
L 107.553397 159.736727 
L 107.654 159.059959 
L 107.873987 159.059959 
L 107.883377 158.721575 
L 108.053733 158.721575 
L 108.053733 158.552383 
L 108.170433 158.552383 
L 108.240185 158.213999 
L 108.275061 158.213999 
L 108.370299 158.213999 
L 108.370299 158.044807 
L 108.513827 158.044807 
L 108.513827 157.875615 
L 108.558093 157.875615 
L 108.900146 157.875615 
L 108.900146 157.706423 
L 108.977946 157.706423 
L 109.155009 157.706423 
L 109.155009 157.53723 
L 109.345485 157.53723 
L 109.425969 157.029654 
L 109.472917 157.029654 
L 109.566814 156.69127 
L 109.576204 156.69127 
L 109.77607 156.69127 
L 109.84448 156.014502 
L 110.009471 156.014502 
L 110.009471 155.84531 
L 110.248237 155.84531 
L 110.354206 155.506926 
L 110.368961 155.506926 
L 110.394448 155.168542 
L 110.536634 155.168542 
L 110.536634 154.99935 
L 110.682845 154.99935 
L 110.725769 154.660966 
L 110.847835 154.660966 
L 110.847835 154.491774 
L 111.145623 154.491774 
L 111.145623 154.322582 
L 111.155012 154.322582 
L 111.260982 154.322582 
L 111.260982 154.15339 
L 111.403168 154.15339 
L 111.499748 153.815006 
L 111.652666 153.815006 
L 111.74388 153.476622 
L 111.83107 153.476622 
L 111.83107 153.30743 
L 111.989353 153.30743 
L 112.076543 152.969046 
L 112.445424 152.969046 
L 112.445424 152.799854 
L 112.576879 152.799854 
L 112.576879 152.630661 
L 112.706993 152.630661 
L 112.706993 152.461469 
L 113.262326 152.461469 
L 113.330737 152.123085 
L 113.482313 152.123085 
L 113.561455 151.615509 
L 113.627183 151.615509 
L 113.627183 151.446317 
L 113.664742 151.446317 
L 113.766687 151.446317 
L 113.766687 151.277125 
L 114.056426 151.277125 
L 114.083253 150.938741 
L 114.454817 150.938741 
L 114.500424 150.600357 
L 114.60371 150.600357 
L 114.60371 150.431165 
L 115.028929 150.431165 
L 115.028929 150.261973 
L 115.189895 150.261973 
L 115.234161 149.923589 
L 115.590969 149.923589 
L 115.590969 149.754397 
L 115.700962 149.754397 
L 116.169105 149.754397 
L 116.225443 149.416013 
L 116.29922 149.416013 
L 116.29922 149.246821 
L 116.432017 149.246821 
L 116.504451 148.908437 
L 116.582252 148.908437 
L 116.582252 148.739245 
L 116.594324 148.739245 
L 117.08527 148.739245 
L 117.112098 148.400861 
L 117.498417 148.400861 
L 117.515855 148.062477 
L 117.883394 148.062477 
L 117.912904 147.724092 
L 118.13155 147.724092 
L 118.132891 147.5549 
L 119.361599 147.5549 
L 119.427327 147.216516 
L 119.487689 147.216516 
L 119.495737 146.878132 
L 119.510493 146.878132 
L 119.770721 146.878132 
L 119.806938 146.370556 
L 119.829742 146.370556 
L 120.491044 146.370556 
L 120.491044 146.201364 
L 120.626524 146.201364 
L 120.626524 146.032172 
L 120.910897 146.032172 
L 120.965894 145.693788 
L 120.976625 145.693788 
L 121.046377 145.693788 
L 121.046377 145.524596 
L 121.149664 145.524596 
L 121.302581 145.524596 
L 121.33075 145.186212 
L 121.373675 145.186212 
L 121.413916 145.186212 
L 121.413916 145.01702 
L 121.891449 145.01702 
L 121.891449 144.847828 
L 121.958518 144.847828 
L 122.352885 144.847828 
L 122.432027 144.340252 
L 122.59031 144.340252 
L 122.59031 144.17106 
L 122.701645 144.17106 
L 122.701645 144.001868 
L 122.768714 144.001868 
L 122.889439 144.001868 
L 122.889439 143.832676 
L 123.041015 143.832676 
L 123.042356 143.663484 
L 123.309292 143.663484 
L 123.324047 143.3251 
L 123.407213 143.3251 
L 123.474282 143.3251 
L 123.474282 143.155908 
L 124.060467 143.155908 
L 124.060467 142.986715 
L 124.187898 142.986715 
L 124.187898 142.817523 
L 124.415933 142.817523 
L 124.415933 142.648331 
L 125.030287 142.648331 
L 125.117477 142.309947 
L 125.165767 142.309947 
L 125.165767 142.140755 
L 125.21674 142.140755 
L 125.486358 142.140755 
L 125.51721 141.802371 
L 125.788169 141.802371 
L 125.864628 141.463987 
L 126.061811 141.463987 
L 126.171805 141.125603 
L 126.249605 141.125603 
L 126.249605 140.956411 
L 126.271067 140.956411 
L 126.47764 140.956411 
L 126.584951 140.618027 
L 126.771403 140.618027 
L 126.771403 140.448835 
L 126.96188 140.448835 
L 127.054435 140.110451 
L 127.376368 140.110451 
L 127.376368 139.941259 
L 127.448802 139.941259 
L 128.331433 139.941259 
L 128.428013 139.602875 
L 129.527947 139.602875 
L 129.527947 139.433683 
L 129.554775 139.433683 
L 129.768055 139.433683 
L 129.768055 139.264491 
L 129.88878 139.264491 
L 129.939752 138.926107 
L 130.30595 138.926107 
L 130.387774 138.587723 
L 130.397164 138.587723 
L 130.609103 138.587723 
L 130.609103 138.418531 
L 130.759338 138.418531 
L 130.845186 137.910954 
L 130.980666 137.910954 
L 131.034321 137.403378 
L 131.101391 137.403378 
L 131.101391 137.234186 
L 131.210043 137.234186 
L 131.30394 137.234186 
L 131.33345 136.895802 
L 131.404543 136.895802 
L 131.978656 136.895802 
L 131.978656 136.72661 
L 132.079259 136.72661 
L 132.094015 136.72661 
L 132.098039 136.388226 
L 132.689589 136.388226 
L 132.689589 136.219034 
L 132.779462 136.219034 
L 132.882748 136.219034 
L 132.991401 135.542266 
L 133.399181 135.542266 
L 133.399181 135.373074 
L 134.352905 135.373074 
L 134.441437 134.865498 
L 134.478995 134.865498 
L 134.524602 134.527114 
L 134.955187 134.527114 
L 135.015549 134.18873 
L 135.050425 134.18873 
L 135.077252 134.18873 
L 135.157735 133.850346 
L 135.833793 133.850346 
L 135.923666 133.34277 
L 136.099387 133.34277 
L 136.099387 133.173577 
L 136.476316 133.173577 
L 136.476316 133.004385 
L 136.496437 133.004385 
L 136.821052 133.004385 
L 136.821052 132.835193 
L 136.855927 132.835193 
L 137.200663 132.835193 
L 137.299926 132.327617 
L 137.341508 132.327617 
L 137.34285 131.989233 
L 137.64332 131.989233 
L 137.64332 131.820041 
L 137.735875 131.820041 
L 138.281819 131.820041 
L 138.314012 131.481657 
L 138.57424 131.481657 
L 138.672161 130.974081 
L 139.028969 130.974081 
L 139.098721 130.635697 
L 139.298588 130.635697 
L 139.305294 130.297313 
L 139.332122 130.297313 
L 139.656737 130.297313 
L 139.69832 129.789737 
L 140.34755 129.789737 
L 140.429374 129.451353 
L 140.45486 129.451353 
L 140.550099 129.451353 
L 140.550099 129.282161 
L 140.641313 129.282161 
L 140.963245 129.282161 
L 140.965928 128.943777 
L 141.156404 128.943777 
L 141.156404 128.774585 
L 141.171159 128.774585 
L 141.599061 128.774585 
L 141.702347 128.436201 
L 141.722468 128.436201 
L 141.722468 128.267008 
L 141.959893 128.267008 
L 141.959893 128.097816 
L 142.226829 128.097816 
L 142.319384 127.59024 
L 142.379746 127.59024 
L 142.381088 127.421048 
L 142.680216 127.421048 
L 142.680216 127.251856 
L 142.888131 127.251856 
L 142.888131 127.082664 
L 142.998124 127.082664 
L 143.171163 127.082664 
L 143.267742 126.74428 
L 143.641989 126.74428 
L 143.747958 126.405896 
L 143.929045 126.405896 
L 143.929045 126.236704 
L 143.980017 126.236704 
L 144.111473 126.236704 
L 144.111473 126.067512 
L 144.351581 126.067512 
L 144.430722 125.729128 
L 144.964593 125.729128 
L 145.053124 125.221552 
L 145.463588 125.221552 
L 145.463588 125.05236 
L 145.584312 125.05236 
L 145.607116 124.713976 
L 145.75601 124.713976 
L 145.75601 124.544784 
L 145.866003 124.544784 
L 145.980021 124.544784 
L 145.980021 124.375592 
L 146.075259 124.375592 
L 146.830458 124.375592 
L 146.912282 123.698824 
L 147.141659 123.698824 
L 147.141659 123.529631 
L 147.228849 123.529631 
L 147.299942 123.529631 
L 147.376401 122.852863 
L 147.637971 122.852863 
L 147.726502 122.514479 
L 147.823082 122.514479 
L 147.823082 122.345287 
L 147.837837 122.345287 
L 148.081969 122.345287 
L 148.081969 122.176095 
L 148.136966 122.176095 
L 148.391829 122.176095 
L 148.391829 122.006903 
L 148.85863 122.006903 
L 148.85863 121.837711 
L 149.137638 121.837711 
L 149.137638 121.668519 
L 149.151052 121.668519 
L 149.257021 121.668519 
L 149.257021 121.499327 
L 149.9143 121.499327 
L 149.9143 121.330135 
L 149.974662 121.330135 
L 150.436098 121.330135 
L 150.436098 121.160943 
L 150.898875 121.160943 
L 150.898875 120.991751 
L 151.059841 120.991751 
L 151.059841 120.822559 
L 151.734557 120.822559 
L 151.734557 120.653367 
L 151.922351 120.653367 
L 151.922351 120.484175 
L 152.091366 120.484175 
L 152.190628 120.145791 
L 152.320742 120.145791 
L 152.418663 119.638215 
L 152.862661 119.638215 
L 152.862661 119.469023 
L 152.98741 119.469023 
L 152.98741 119.299831 
L 153.223494 119.299831 
L 153.263735 118.792255 
L 153.369704 118.792255 
L 153.369704 118.623062 
L 153.507867 118.623062 
L 153.57896 118.284678 
L 154.535367 118.284678 
L 154.535367 118.115486 
L 154.578291 118.115486 
L 154.725844 118.115486 
L 154.725844 117.946294 
L 154.890834 117.946294 
L 154.996803 117.60791 
L 155.293249 117.60791 
L 155.321418 117.269526 
L 155.821754 117.269526 
L 155.900896 116.931142 
L 156.310018 116.931142 
L 156.310018 116.76195 
L 156.387818 116.76195 
L 156.855961 116.76195 
L 156.855961 116.592758 
L 156.974003 116.592758 
L 156.974003 116.423566 
L 157.108141 116.423566 
L 157.108141 116.254374 
L 157.1846 116.254374 
L 157.694326 116.254374 
L 157.761395 115.91599 
L 157.886144 115.91599 
L 157.977358 115.577606 
L 158.136983 115.577606 
L 158.136983 115.408414 
L 158.292583 115.408414 
L 158.292583 115.239222 
L 158.307338 115.239222 
L 158.53135 115.239222 
L 158.53135 115.07003 
L 158.576957 115.07003 
L 158.689633 115.07003 
L 158.689633 114.900838 
L 158.916327 114.900838 
L 158.916327 114.731646 
L 159.277159 114.731646 
L 159.277159 114.562454 
L 159.357642 114.562454 
L 159.493122 114.562454 
L 159.600433 114.22407 
L 159.639333 114.22407 
L 159.639333 114.054878 
L 159.667502 114.054878 
L 159.770788 114.054878 
L 159.80164 113.716493 
L 160.116865 113.716493 
L 160.116865 113.547301 
L 160.23759 113.547301 
L 160.23759 113.378109 
L 160.511232 113.378109 
L 160.511232 113.208917 
L 160.822433 113.208917 
L 160.822433 113.039725 
L 160.937792 113.039725 
L 160.937792 112.870533 
L 160.959254 112.870533 
L 161.214117 112.870533 
L 161.214117 112.701341 
L 161.77884 112.701341 
L 161.793595 112.362957 
L 161.921027 112.362957 
L 161.967975 112.024573 
L 162.15711 112.024573 
L 162.15711 111.855381 
L 162.2443 111.855381 
L 162.430753 111.855381 
L 162.430753 111.516997 
L 162.819754 111.516997 
L 162.819754 111.347805 
L 163.1551 111.347805 
L 163.261069 110.671037 
L 163.266435 110.671037 
L 163.266435 110.501845 
L 163.32948 110.501845 
L 163.452887 110.501845 
L 163.536053 110.163461 
L 163.726529 110.163461 
L 163.726529 109.994269 
L 163.982734 109.994269 
L 164.076631 109.486693 
L 164.487094 109.486693 
L 164.487094 109.317501 
L 164.751347 109.317501 
L 164.751347 109.148309 
L 164.876095 109.148309 
L 164.876095 108.979117 
L 165.34558 108.979117 
L 165.455573 108.47154 
L 165.729216 108.47154 
L 165.729216 108.302348 
L 166.086024 108.302348 
L 166.086024 108.133156 
L 166.119558 108.133156 
L 166.272476 108.133156 
L 166.303328 107.794772 
L 166.382469 107.794772 
L 166.52868 107.794772 
L 166.61587 106.948812 
L 166.66416 106.948812 
L 166.758057 106.610428 
L 166.986092 106.610428 
L 166.986092 106.441236 
L 167.157789 106.441236 
L 167.159131 106.272044 
L 167.287904 106.272044 
L 167.346924 105.93366 
L 167.356314 105.93366 
L 167.746657 105.93366 
L 167.746657 105.764468 
L 167.784216 105.764468 
L 168.002861 105.764468 
L 168.002861 105.595276 
L 168.071272 105.595276 
L 168.2148 105.595276 
L 168.277845 105.426084 
L 168.34089 105.426084 
L 168.34089 105.256892 
L 168.51527 105.256892 
L 168.51527 105.0877 
L 168.626605 105.0877 
L 168.626605 104.918508 
L 168.686967 104.918508 
L 168.920368 104.918508 
L 168.920368 104.749316 
L 169.297297 104.749316 
L 169.297297 104.580124 
L 169.471677 104.580124 
L 169.471677 104.410932 
L 171.012927 104.410932 
L 171.012927 104.24174 
L 171.057192 104.24174 
L 172.409307 104.24174 
L 172.409307 104.072547 
L 172.496497 104.072547 
L 172.534056 104.072547 
L 172.534056 103.903355 
L 172.803674 103.903355 
L 172.889523 103.057395 
L 172.897571 103.057395 
L 172.924399 103.057395 
L 173.020978 102.719011 
L 173.038416 102.719011 
L 173.038416 102.549819 
L 173.359007 102.549819 
L 173.359007 102.380627 
L 173.440831 102.380627 
L 173.513266 102.380627 
L 173.513266 102.211435 
L 173.620577 102.211435 
L 173.719839 102.211435 
L 173.719839 102.042243 
L 174.252369 102.042243 
L 174.252369 101.873051 
L 174.361021 101.873051 
L 174.713805 101.873051 
L 174.713805 101.703859 
L 174.84526 101.703859 
L 174.84526 101.534667 
L 174.913671 101.534667 
L 174.957937 101.534667 
L 175.011592 101.196283 
L 175.092075 101.196283 
L 175.092075 101.027091 
L 175.337548 101.027091 
L 175.431445 100.688707 
L 175.54278 100.688707 
L 175.54278 100.519515 
L 175.646067 100.519515 
L 176.187986 100.519515 
L 176.23091 100.181131 
L 176.426752 100.181131 
L 176.426752 100.011939 
L 176.670884 100.011939 
L 176.670884 99.842747 
L 177.018302 99.842747 
L 177.018302 99.673555 
L 177.081347 99.673555 
L 177.153782 99.673555 
L 177.153782 99.504363 
L 177.24902 99.504363 
L 177.446204 99.504363 
L 177.524004 99.165978 
L 177.656801 99.165978 
L 177.656801 98.996786 
L 178.040437 98.996786 
L 178.040437 98.827594 
L 178.087385 98.827594 
L 178.304689 98.827594 
L 178.304689 98.658402 
L 178.428097 98.658402 
L 178.516628 98.150826 
L 179.938495 98.150826 
L 179.938495 97.981634 
L 179.969347 97.981634 
L 180.357007 97.981634 
L 180.438831 97.64325 
L 180.570287 97.64325 
L 180.570287 97.474058 
L 181.122937 97.474058 
L 181.122937 97.304866 
L 181.583032 97.304866 
L 181.613883 96.966482 
L 181.85265 96.966482 
L 181.942522 96.628098 
L 181.962643 96.628098 
L 182.222872 96.628098 
L 182.264455 96.289714 
L 182.303355 96.289714 
L 182.391886 96.289714 
L 182.391886 96.120522 
L 182.440176 96.120522 
L 182.681625 96.120522 
L 182.681625 95.95133 
L 182.932464 95.95133 
L 182.932464 95.782138 
L 183.550842 95.782138 
L 183.643397 95.274562 
L 183.72388 95.274562 
L 183.72388 95.10537 
L 183.737294 95.10537 
L 183.966671 95.10537 
L 183.966671 94.936178 
L 184.035081 94.936178 
L 184.362379 94.936178 
L 184.457617 94.766986 
L 185.646083 94.766986 
L 185.646083 94.597794 
L 186.099471 94.597794 
L 186.099471 94.428602 
L 186.18532 94.428602 
L 186.288606 94.428602 
L 186.366407 94.090217 
L 186.375796 94.090217 
L 187.313424 94.090217 
L 187.385858 93.582641 
L 187.660842 93.582641 
L 187.722546 93.244257 
L 188.193371 93.244257 
L 188.193371 93.075065 
L 188.5703 93.075065 
L 188.5703 92.905873 
L 189.19002 92.905873 
L 189.257089 92.567489 
L 189.428786 92.567489 
L 189.428786 92.398297 
L 189.532072 92.398297 
L 189.540121 92.398297 
L 189.540121 92.229105 
L 189.613897 92.229105 
L 189.690356 92.229105 
L 189.690356 92.059913 
L 189.78157 92.059913 
L 189.90766 92.059913 
L 189.978753 91.721529 
L 190.507259 91.721529 
L 190.507259 91.552337 
L 191.160512 91.552337 
L 191.242337 91.213953 
L 191.363061 91.213953 
L 191.365744 90.875569 
L 191.460982 90.875569 
L 191.481103 90.875569 
L 191.481103 90.706377 
L 191.656825 90.706377 
L 191.656825 90.537185 
L 192.241668 90.537185 
L 192.293982 90.029609 
L 192.768832 90.029609 
L 192.768832 89.860417 
L 193.245023 89.860417 
L 193.295996 89.522033 
L 193.349651 89.522033 
L 193.462327 89.522033 
L 193.462327 89.35284 
L 193.570979 89.35284 
L 193.67829 89.35284 
L 193.67829 89.183648 
L 193.757432 89.183648 
L 193.93047 89.183648 
L 193.93047 89.014456 
L 194.226916 89.014456 
L 194.299351 88.676072 
L 194.306058 88.676072 
L 194.578359 88.676072 
L 194.654818 88.337688 
L 194.815784 88.337688 
L 194.815784 88.168496 
L 194.964677 88.168496 
L 194.980774 87.830112 
L 195.034429 87.830112 
L 195.129667 87.830112 
L 195.235637 87.491728 
L 195.254416 87.491728 
L 195.357703 86.984152 
L 195.388554 86.984152 
L 195.454282 86.645768 
L 195.584397 86.645768 
L 195.584397 86.476576 
L 195.66488 86.476576 
L 195.836577 86.476576 
L 195.836577 86.307384 
L 196.248382 86.307384 
L 196.248382 86.138192 
L 196.336913 86.138192 
L 196.552876 86.138192 
L 196.638724 85.799808 
L 197.042481 85.799808 
L 197.042481 85.630616 
L 197.126988 85.630616 
L 197.230275 85.630616 
L 197.230275 85.461424 
L 197.463675 85.461424 
L 197.463675 85.292232 
L 197.503917 85.292232 
L 198.106198 85.292232 
L 198.106198 85.12304 
L 198.108881 85.12304 
L 198.338258 85.12304 
L 198.338258 84.953848 
L 198.456299 84.953848 
L 198.456299 84.784656 
L 199.714517 84.784656 
L 199.714517 84.615463 
L 199.753418 84.615463 
L 200.108884 84.615463 
L 200.108884 84.446271 
L 200.173271 84.446271 
L 200.876156 84.446271 
L 200.95798 84.107887 
L 201.973408 84.107887 
L 201.973408 83.938695 
L 202.330216 83.938695 
L 202.330216 83.769503 
L 202.410699 83.769503 
L 204.190716 83.769503 
L 204.190716 83.600311 
L 204.287295 83.600311 
L 204.615934 83.600311 
L 204.615934 83.431119 
L 205.147122 83.431119 
L 205.165902 83.092735 
L 205.306747 83.092735 
L 205.306747 82.923543 
L 205.51332 82.923543 
L 205.51332 82.754351 
L 205.581731 82.754351 
L 205.935856 82.754351 
L 205.935856 82.585159 
L 207.004939 82.585159 
L 207.004939 82.415967 
L 207.318823 82.415967 
L 207.387233 82.077583 
L 208.872145 82.077583 
L 208.872145 81.908391 
L 209.977446 81.908391 
L 209.977446 81.739199 
L 210.071342 81.739199 
L 210.632041 81.739199 
L 210.632041 81.570007 
L 210.763497 81.570007 
L 210.865442 80.724047 
L 211.613934 80.724047 
L 211.613934 80.554855 
L 212.001594 80.554855 
L 212.001594 80.385663 
L 212.083418 80.385663 
L 212.291333 80.385663 
L 212.291333 80.216471 
L 212.399985 80.216471 
L 213.222253 80.216471 
L 213.324198 79.878087 
L 214.705824 79.878087 
L 214.73131 79.539702 
L 214.813134 79.539702 
L 215.446268 79.539702 
L 215.490533 79.37051 
L 215.621989 79.37051 
L 215.664913 78.862934 
L 216.607906 78.862934 
L 216.607906 78.693742 
L 216.69912 78.693742 
L 216.853379 78.693742 
L 216.853379 78.52455 
L 216.888255 78.52455 
L 217.351033 78.52455 
L 217.351033 78.355358 
L 217.424809 78.355358 
L 217.485171 78.355358 
L 217.485171 78.186166 
L 218.005628 78.186166 
L 218.048552 77.847782 
L 218.349022 77.847782 
L 218.349022 77.67859 
L 218.363778 77.67859 
L 218.971424 77.67859 
L 218.971424 77.509398 
L 219.05459 77.509398 
L 219.108246 77.509398 
L 219.163242 77.171014 
L 219.183363 77.171014 
L 220.335612 77.171014 
L 220.335612 77.001822 
L 221.28397 77.001822 
L 221.363112 76.663438 
L 221.650168 76.663438 
L 221.650168 76.494246 
L 221.726627 76.494246 
L 222.870827 76.494246 
L 222.974114 75.817478 
L 223.403357 75.817478 
L 223.403357 75.648286 
L 223.461036 75.648286 
L 224.228308 75.648286 
L 224.299401 75.309902 
L 225.416774 75.309902 
L 225.416774 75.14071 
L 226.221604 75.14071 
L 226.273918 74.802325 
L 226.790351 74.802325 
L 226.793034 74.463941 
L 226.877541 74.463941 
L 227.368488 74.463941 
L 227.368488 74.294749 
L 227.424826 74.294749 
L 227.562988 74.294749 
L 227.627375 73.956365 
L 228.33965 73.956365 
L 228.33965 73.787173 
L 229.112287 73.787173 
L 229.112287 73.617981 
L 229.161918 73.617981 
L 229.714568 73.617981 
L 229.791027 73.110405 
L 229.803099 73.110405 
L 230.383919 73.110405 
L 230.383919 72.941213 
L 230.459036 72.941213 
L 231.485195 72.941213 
L 231.485195 72.772021 
L 232.235028 72.772021 
L 232.32356 72.433637 
L 232.358436 72.433637 
L 232.358436 72.264445 
L 232.457698 72.264445 
L 232.648175 72.264445 
L 232.648175 72.095253 
L 232.676344 72.095253 
L 233.334963 72.095253 
L 233.334963 71.926061 
L 233.400691 71.926061 
L 233.509343 71.926061 
L 233.607264 71.587677 
L 233.677016 71.587677 
L 233.733354 71.249293 
L 234.12638 71.249293 
L 234.159914 70.910909 
L 234.225642 70.910909 
L 235.62873 70.910909 
L 235.62873 70.741717 
L 235.693116 70.741717 
L 235.909079 70.741717 
L 235.909079 70.572525 
L 236.322225 70.572525 
L 236.322225 70.403333 
L 236.432218 70.403333 
L 236.52075 70.403333 
L 236.52075 70.234141 
L 236.595867 70.234141 
L 236.831951 70.234141 
L 236.911092 69.895756 
L 236.93792 69.895756 
L 237.031817 69.895756 
L 237.031817 69.726564 
L 237.243756 69.726564 
L 237.243756 69.557372 
L 238.429539 69.557372 
L 238.539533 69.218988 
L 238.593188 69.218988 
L 238.633429 68.880604 
L 238.681719 68.880604 
L 240.536853 68.880604 
L 240.536853 68.711412 
L 240.566364 68.711412 
L 241.668981 68.711412 
L 241.668981 68.54222 
L 243.226328 68.54222 
L 243.226328 68.373028 
L 243.320225 68.373028 
L 243.813854 68.373028 
L 243.813854 68.203836 
L 243.840682 68.203836 
L 244.092862 68.203836 
L 244.092862 68.034644 
L 244.193466 68.034644 
L 244.428208 68.034644 
L 244.428208 67.865452 
L 244.514056 67.865452 
L 245.074755 67.865452 
L 245.081462 67.527068 
L 245.175359 67.527068 
L 245.188772 67.527068 
L 245.188772 67.357876 
L 245.191455 67.357876 
L 245.608626 67.357876 
L 245.608626 67.188684 
L 245.679719 67.188684 
L 245.789712 67.188684 
L 245.789712 67.019492 
L 245.821906 67.019492 
L 246.019089 67.019492 
L 246.10762 66.681108 
L 247.089513 66.681108 
L 247.089513 66.511916 
L 247.121707 66.511916 
L 247.524122 66.511916 
L 247.524122 66.342724 
L 247.538877 66.342724 
L 248.145182 66.342724 
L 248.145182 66.173532 
L 248.201521 66.173532 
L 248.85075 66.173532 
L 248.85075 66.00434 
L 248.903064 66.00434 
L 249.157927 66.00434 
L 249.157927 65.835148 
L 249.16061 65.835148 
L 249.695822 65.835148 
L 249.695822 65.665956 
L 249.706553 65.665956 
L 250.263228 65.665956 
L 250.263228 65.496764 
L 250.515408 65.496764 
L 250.515408 65.327572 
L 250.956723 65.327572 
L 250.960747 65.158379 
L 251.373893 65.158379 
L 251.373893 64.989187 
L 251.493277 64.989187 
L 251.493277 64.819995 
L 251.646194 64.819995 
L 251.646194 64.650803 
L 251.741433 64.650803 
L 251.958737 64.650803 
L 251.958737 64.481611 
L 252.064706 64.481611 
L 253.275976 64.481611 
L 253.275976 64.312419 
L 253.369873 64.312419 
L 253.884964 64.312419 
L 253.888988 63.974035 
L 254.149217 63.974035 
L 254.202872 63.466459 
L 254.241772 63.466459 
L 254.786374 63.466459 
L 254.786374 63.297267 
L 254.838688 63.297267 
L 255.426214 63.297267 
L 255.426214 63.128075 
L 255.449018 63.128075 
L 255.787046 63.128075 
L 255.787046 62.958883 
L 255.832654 62.958883 
L 256.400059 62.958883 
L 256.508711 62.451307 
L 256.755526 62.451307 
L 256.755526 62.282115 
L 256.803815 62.282115 
L 256.884298 62.282115 
L 256.884298 62.112923 
L 256.984902 62.112923 
L 257.57377 62.112923 
L 257.57377 61.943731 
L 257.614011 61.943731 
L 258.025816 61.943731 
L 258.025816 61.774539 
L 258.121054 61.774539 
L 258.412135 61.774539 
L 258.467131 61.436155 
L 258.512739 61.436155 
L 258.743457 61.436155 
L 258.743457 61.266963 
L 258.779674 61.266963 
L 259.356469 61.266963 
L 259.356469 61.097771 
L 259.368541 61.097771 
L 260.150568 61.097771 
L 260.150568 60.928579 
L 260.841381 60.928579 
L 260.841381 60.759387 
L 261.324279 60.759387 
L 261.324279 60.590195 
L 261.377934 60.590195 
L 262.011068 60.590195 
L 262.011068 60.421003 
L 262.078137 60.421003 
L 262.724684 60.421003 
L 262.724684 60.25181 
L 262.826629 60.25181 
L 263.858153 60.25181 
L 263.871567 59.913426 
L 264.13582 59.913426 
L 264.137161 59.744234 
L 264.26191 59.744234 
L 264.347758 59.575042 
L 264.699201 59.575042 
L 264.699201 59.40585 
L 264.772977 59.40585 
L 265.931933 59.40585 
L 265.931933 59.236658 
L 266.582504 59.236658 
L 266.664328 58.898274 
L 266.719325 58.898274 
L 266.719325 58.729082 
L 267.159299 58.729082 
L 267.159299 58.55989 
L 267.183444 58.55989 
L 267.804505 58.55989 
L 267.804505 58.390698 
L 268.89505 58.390698 
L 268.89505 58.221506 
L 270.709942 58.221506 
L 270.709942 58.052314 
L 271.559038 58.052314 
L 271.559038 57.883122 
L 271.656959 57.883122 
L 272.209609 57.883122 
L 272.209609 57.71393 
L 272.290092 57.71393 
L 272.884325 57.71393 
L 272.884325 57.544738 
L 274.30351 57.544738 
L 274.30351 57.375546 
L 274.390699 57.375546 
L 275.247844 57.375546 
L 275.247844 57.206354 
L 275.308206 57.206354 
L 275.509414 57.206354 
L 275.509414 57.037162 
L 275.588555 57.037162 
L 276.460455 57.037162 
L 276.460455 56.86797 
L 276.563741 56.86797 
L 277.500027 56.86797 
L 277.500027 56.698778 
L 277.816594 56.698778 
L 277.92927 56.191202 
L 278.009753 56.191202 
L 278.009753 56.02201 
L 278.119747 56.02201 
L 278.408144 56.02201 
L 278.408144 55.852818 
L 278.508748 55.852818 
L 279.230413 55.852818 
L 279.339065 55.514434 
L 280.485948 55.514434 
L 280.573138 55.176049 
L 280.595941 55.176049 
L 282.338399 55.176049 
L 282.338399 55.006857 
L 282.709962 55.006857 
L 282.709962 54.837665 
L 282.801176 54.837665 
L 283.656979 54.837665 
L 283.697221 54.499281 
L 284.090246 54.499281 
L 284.090246 54.330089 
L 284.193533 54.330089 
L 284.393399 54.330089 
L 284.393399 54.160897 
L 284.496686 54.160897 
L 285.108357 54.160897 
L 285.108357 53.991705 
L 285.192864 53.991705 
L 285.36322 53.991705 
L 285.36322 53.822513 
L 285.466506 53.822513 
L 285.800511 53.822513 
L 285.800511 53.653321 
L 285.827338 53.653321 
L 286.060739 53.653321 
L 286.060739 53.484129 
L 286.758259 53.484129 
L 286.758259 53.314937 
L 286.791793 53.314937 
L 287.318957 53.314937 
L 287.318957 53.145745 
L 287.347126 53.145745 
L 289.257257 53.145745 
L 289.257257 52.976553 
L 289.302864 52.976553 
L 289.493341 52.976553 
L 289.493341 52.807361 
L 289.580531 52.807361 
L 291.057394 52.807361 
L 291.11105 52.468977 
L 291.128488 52.468977 
L 291.87698 52.468977 
L 291.87698 52.299785 
L 291.980266 52.299785 
L 292.067456 52.299785 
L 292.067456 52.130593 
L 292.075505 52.130593 
L 293.403475 52.130593 
L 293.450423 51.792209 
L 294.443047 51.792209 
L 294.443047 51.623017 
L 295.155322 51.623017 
L 295.206295 51.115441 
L 296.400126 51.115441 
L 296.472561 50.777057 
L 297.148618 50.777057 
L 297.148618 50.607864 
L 297.229101 50.607864 
L 297.800531 50.607864 
L 297.800531 50.438672 
L 298.699258 50.438672 
L 298.727427 50.100288 
L 298.774376 50.100288 
L 298.907173 50.100288 
L 298.907173 49.931096 
L 299.005094 49.931096 
L 300.810596 49.931096 
L 300.810596 49.761904 
L 300.907176 49.761904 
L 301.196915 49.761904 
L 301.196915 49.592712 
L 301.237156 49.592712 
L 303.239843 49.592712 
L 303.239843 49.42352 
L 303.308253 49.42352 
L 306.007118 49.42352 
L 306.007118 49.254328 
L 306.055407 49.254328 
L 306.807924 49.254328 
L 306.807924 49.085136 
L 306.810607 49.085136 
L 308.260642 49.085136 
L 308.260642 48.915944 
L 308.295518 48.915944 
L 308.571844 48.915944 
L 308.571844 48.746752 
L 308.657692 48.746752 
L 310.173456 48.746752 
L 310.173456 48.57756 
L 310.719399 48.57756 
L 310.719399 48.408368 
L 310.782444 48.408368 
L 311.85421 48.408368 
L 311.85421 48.239176 
L 311.910548 48.239176 
L 313.336439 48.239176 
L 313.336439 48.069984 
L 313.93872 48.069984 
L 313.960183 47.7316 
L 314.55844 47.7316 
L 314.55844 47.562408 
L 315.805927 47.562408 
L 315.805927 47.393216 
L 316.0125 47.393216 
L 316.0125 47.224024 
L 316.19627 47.224024 
L 316.212366 46.88564 
L 316.755627 46.88564 
L 316.755627 46.716448 
L 316.82672 46.716448 
L 318.634905 46.716448 
L 318.634905 46.547256 
L 318.795871 46.547256 
L 318.795871 46.378064 
L 318.89111 46.378064 
L 321.657043 46.378064 
L 321.657043 46.208872 
L 321.68253 46.208872 
L 322.207011 46.208872 
L 322.207011 46.03968 
L 323.422304 46.03968 
L 323.422304 45.870488 
L 324.162748 45.870488 
L 324.162748 45.701295 
L 324.170797 45.701295 
L 325.062817 45.701295 
L 325.062817 45.532103 
L 326.539681 45.532103 
L 326.539681 45.362911 
L 326.616139 45.362911 
L 328.530294 45.362911 
L 328.530294 45.193719 
L 328.621508 45.193719 
L 328.669798 45.193719 
L 328.669798 45.024527 
L 328.726136 45.024527 
L 328.938075 45.024527 
L 328.938075 44.855335 
L 330.382745 44.855335 
L 330.382745 44.686143 
L 331.997772 44.686143 
L 331.997772 44.516951 
L 332.569201 44.516951 
L 332.569201 44.347759 
L 333.387445 44.347759 
L 333.387445 44.178567 
L 334.115817 44.178567 
L 334.115817 44.009375 
L 335.080272 44.009375 
L 335.080272 43.840183 
L 335.504149 43.840183 
L 335.504149 43.670991 
L 335.694626 43.670991 
L 335.694626 43.501799 
L 335.730843 43.501799 
L 336.936747 43.501799 
L 336.936747 43.332607 
L 337.045399 43.332607 
L 337.968271 43.332607 
L 337.968271 43.163415 
L 338.027292 43.163415 
L 338.593356 43.163415 
L 338.593356 42.994223 
L 339.086985 42.994223 
L 339.086985 42.825031 
L 341.108451 42.825031 
L 341.108451 42.655839 
L 343.151379 42.655839 
L 343.151379 42.486647 
L 343.194303 42.486647 
L 343.3271 42.486647 
L 343.3271 42.317455 
L 343.371366 42.317455 
L 343.557818 42.317455 
L 343.557818 42.148263 
L 343.606108 42.148263 
L 344.211072 42.148263 
L 344.300945 41.809879 
L 345.19833 41.809879 
L 345.19833 41.640687 
L 345.764394 41.640687 
L 345.764394 41.471495 
L 345.777808 41.471495 
L 347.315034 41.471495 
L 347.319058 41.133111 
L 347.565873 41.133111 
L 347.565873 40.963919 
L 349.300282 40.963919 
L 349.300282 40.794726 
L 349.328451 40.794726 
L 352.649718 40.794726 
L 352.649718 40.625534 
L 352.723494 40.625534 
L 353.832818 40.625534 
L 353.832818 40.456342 
L 353.840867 40.456342 
L 355.158106 40.456342 
L 355.158106 40.28715 
L 355.21042 40.28715 
L 355.282854 40.28715 
L 355.282854 40.117958 
L 357.355292 40.117958 
L 357.355292 39.948766 
L 357.463945 39.948766 
L 357.977695 39.948766 
L 357.977695 39.779574 
L 358.28353 39.779574 
L 358.28353 39.610382 
L 358.392182 39.610382 
L 359.276154 39.610382 
L 359.276154 39.44119 
L 361.203723 39.44119 
L 361.203723 39.271998 
L 361.300302 39.271998 
L 361.781859 39.271998 
L 361.781859 39.102806 
L 365.109833 39.102806 
L 365.109833 38.933614 
L 365.598096 38.933614 
L 365.598096 38.764422 
L 365.661141 38.764422 
L 365.709431 38.764422 
L 365.709431 38.59523 
L 367.584686 38.59523 
L 367.591393 38.256846 
L 370.02198 38.256846 
L 370.02198 38.087654 
L 372.629631 38.087654 
L 372.629631 37.918462 
L 372.653776 37.918462 
L 374.170881 37.918462 
L 374.220512 37.580078 
L 378.91938 37.580078 
L 378.91938 37.410886 
L 381.120591 37.410886 
L 381.120591 37.241694 
L 381.227901 37.241694 
L 382.008587 37.241694 
L 382.008587 37.072502 
L 382.726227 37.072502 
L 382.726227 36.90331 
L 384.979752 36.90331 
L 384.979752 36.734118 
L 385.517647 36.734118 
L 385.517647 36.734118 
" style="fill:none;stroke:#0000ff;stroke-linecap:square;stroke-opacity:0.8;stroke-width:1.5;"/>
   </g>
   <g id="patch_3">
    <path d="M 54 256.32 
L 54 34.56 
" style="fill:none;stroke:#000000;stroke-linecap:square;stroke-linejoin:miter;stroke-width:0.8;"/>
   </g>
   <g id="patch_4">
    <path d="M 388.8 256.32 
L 388.8 34.56 
" style="fill:none;stroke:#000000;stroke-linecap:square;stroke-linejoin:miter;stroke-width:0.8;"/>
   </g>
   <g id="patch_5">
    <path d="M 54 256.32 
L 388.8 256.32 
" style="fill:none;stroke:#000000;stroke-linecap:square;stroke-linejoin:miter;stroke-width:0.8;"/>
   </g>
   <g id="patch_6">
    <path d="M 54 34.56 
L 388.8 34.56 
" style="fill:none;stroke:#000000;stroke-linecap:square;stroke-linejoin:miter;stroke-width:0.8;"/>
   </g>
   <g id="legend_1">
    <g id="patch_7">
     <path d="M 226.660937 251.32 
L 381.8 251.32 
Q 383.8 251.32 383.8 249.32 
L 383.8 235.641875 
Q 383.8 233.641875 381.8 233.641875 
L 226.660937 233.641875 
Q 224.660937 233.641875 224.660937 235.641875 
L 224.660937 249.32 
Q 224.660937 251.32 226.660937 251.32 
z
" style="fill:#ffffff;opacity:0.8;stroke:#cccccc;stroke-linejoin:miter;"/>
    </g>
    <g id="line2d_12">
     <path d="M 228.660937 241.740313 
L 248.660937 241.740313 
" style="fill:none;stroke:#0000ff;stroke-linecap:square;stroke-opacity:0.8;stroke-width:1.5;"/>
    </g>
    <g id="line2d_13"/>
    <g id="text_13">
     <!-- IDEARS PD (AUC = 0.73) -->
     <g transform="translate(256.660937 245.240313)scale(0.1 -0.1)">
      <defs>
       <path d="M 9.8125 72.90625 
L 19.671875 72.90625 
L 19.671875 0 
L 9.8125 0 
z
" id="DejaVuSans-73"/>
       <path d="M 19.671875 64.796875 
L 19.671875 8.109375 
L 31.59375 8.109375 
Q 46.6875 8.109375 53.6875 14.9375 
Q 60.6875 21.78125 60.6875 36.53125 
Q 60.6875 51.171875 53.6875 57.984375 
Q 46.6875 64.796875 31.59375 64.796875 
z
M 9.8125 72.90625 
L 30.078125 72.90625 
Q 51.265625 72.90625 61.171875 64.09375 
Q 71.09375 55.28125 71.09375 36.53125 
Q 71.09375 17.671875 61.125 8.828125 
Q 51.171875 0 30.078125 0 
L 9.8125 0 
z
" id="DejaVuSans-68"/>
       <path d="M 9.8125 72.90625 
L 55.90625 72.90625 
L 55.90625 64.59375 
L 19.671875 64.59375 
L 19.671875 43.015625 
L 54.390625 43.015625 
L 54.390625 34.71875 
L 19.671875 34.71875 
L 19.671875 8.296875 
L 56.78125 8.296875 
L 56.78125 0 
L 9.8125 0 
z
" id="DejaVuSans-69"/>
       <path d="M 34.1875 63.1875 
L 20.796875 26.90625 
L 47.609375 26.90625 
z
M 28.609375 72.90625 
L 39.796875 72.90625 
L 67.578125 0 
L 57.328125 0 
L 50.6875 18.703125 
L 17.828125 18.703125 
L 11.1875 0 
L 0.78125 0 
z
" id="DejaVuSans-65"/>
       <path d="M 53.515625 70.515625 
L 53.515625 60.890625 
Q 47.90625 63.578125 42.921875 64.890625 
Q 37.9375 66.21875 33.296875 66.21875 
Q 25.25 66.21875 20.875 63.09375 
Q 16.5 59.96875 16.5 54.203125 
Q 16.5 49.359375 19.40625 46.890625 
Q 22.3125 44.4375 30.421875 42.921875 
L 36.375 41.703125 
Q 47.40625 39.59375 52.65625 34.296875 
Q 57.90625 29 57.90625 20.125 
Q 57.90625 9.515625 50.796875 4.046875 
Q 43.703125 -1.421875 29.984375 -1.421875 
Q 24.8125 -1.421875 18.96875 -0.25 
Q 13.140625 0.921875 6.890625 3.21875 
L 6.890625 13.375 
Q 12.890625 10.015625 18.65625 8.296875 
Q 24.421875 6.59375 29.984375 6.59375 
Q 38.421875 6.59375 43.015625 9.90625 
Q 47.609375 13.234375 47.609375 19.390625 
Q 47.609375 24.75 44.3125 27.78125 
Q 41.015625 30.8125 33.5 32.328125 
L 27.484375 33.5 
Q 16.453125 35.6875 11.515625 40.375 
Q 6.59375 45.0625 6.59375 53.421875 
Q 6.59375 63.09375 13.40625 68.65625 
Q 20.21875 74.21875 32.171875 74.21875 
Q 37.3125 74.21875 42.625 73.28125 
Q 47.953125 72.359375 53.515625 70.515625 
z
" id="DejaVuSans-83"/>
       <path d="M 31 75.875 
Q 24.46875 64.65625 21.28125 53.65625 
Q 18.109375 42.671875 18.109375 31.390625 
Q 18.109375 20.125 21.3125 9.0625 
Q 24.515625 -2 31 -13.1875 
L 23.1875 -13.1875 
Q 15.875 -1.703125 12.234375 9.375 
Q 8.59375 20.453125 8.59375 31.390625 
Q 8.59375 42.28125 12.203125 53.3125 
Q 15.828125 64.359375 23.1875 75.875 
z
" id="DejaVuSans-40"/>
       <path d="M 8.6875 72.90625 
L 18.609375 72.90625 
L 18.609375 28.609375 
Q 18.609375 16.890625 22.84375 11.734375 
Q 27.09375 6.59375 36.625 6.59375 
Q 46.09375 6.59375 50.34375 11.734375 
Q 54.59375 16.890625 54.59375 28.609375 
L 54.59375 72.90625 
L 64.5 72.90625 
L 64.5 27.390625 
Q 64.5 13.140625 57.4375 5.859375 
Q 50.390625 -1.421875 36.625 -1.421875 
Q 22.796875 -1.421875 15.734375 5.859375 
Q 8.6875 13.140625 8.6875 27.390625 
z
" id="DejaVuSans-85"/>
       <path d="M 64.40625 67.28125 
L 64.40625 56.890625 
Q 59.421875 61.53125 53.78125 63.8125 
Q 48.140625 66.109375 41.796875 66.109375 
Q 29.296875 66.109375 22.65625 58.46875 
Q 16.015625 50.828125 16.015625 36.375 
Q 16.015625 21.96875 22.65625 14.328125 
Q 29.296875 6.6875 41.796875 6.6875 
Q 48.140625 6.6875 53.78125 8.984375 
Q 59.421875 11.28125 64.40625 15.921875 
L 64.40625 5.609375 
Q 59.234375 2.09375 53.4375 0.328125 
Q 47.65625 -1.421875 41.21875 -1.421875 
Q 24.65625 -1.421875 15.125 8.703125 
Q 5.609375 18.84375 5.609375 36.375 
Q 5.609375 53.953125 15.125 64.078125 
Q 24.65625 74.21875 41.21875 74.21875 
Q 47.75 74.21875 53.53125 72.484375 
Q 59.328125 70.75 64.40625 67.28125 
z
" id="DejaVuSans-67"/>
       <path d="M 10.59375 45.40625 
L 73.1875 45.40625 
L 73.1875 37.203125 
L 10.59375 37.203125 
z
M 10.59375 25.484375 
L 73.1875 25.484375 
L 73.1875 17.1875 
L 10.59375 17.1875 
z
" id="DejaVuSans-61"/>
       <path d="M 40.578125 39.3125 
Q 47.65625 37.796875 51.625 33 
Q 55.609375 28.21875 55.609375 21.1875 
Q 55.609375 10.40625 48.1875 4.484375 
Q 40.765625 -1.421875 27.09375 -1.421875 
Q 22.515625 -1.421875 17.65625 -0.515625 
Q 12.796875 0.390625 7.625 2.203125 
L 7.625 11.71875 
Q 11.71875 9.328125 16.59375 8.109375 
Q 21.484375 6.890625 26.8125 6.890625 
Q 36.078125 6.890625 40.9375 10.546875 
Q 45.796875 14.203125 45.796875 21.1875 
Q 45.796875 27.640625 41.28125 31.265625 
Q 36.765625 34.90625 28.71875 34.90625 
L 20.21875 34.90625 
L 20.21875 43.015625 
L 29.109375 43.015625 
Q 36.375 43.015625 40.234375 45.921875 
Q 44.09375 48.828125 44.09375 54.296875 
Q 44.09375 59.90625 40.109375 62.90625 
Q 36.140625 65.921875 28.71875 65.921875 
Q 24.65625 65.921875 20.015625 65.03125 
Q 15.375 64.15625 9.8125 62.3125 
L 9.8125 71.09375 
Q 15.4375 72.65625 20.34375 73.4375 
Q 25.25 74.21875 29.59375 74.21875 
Q 40.828125 74.21875 47.359375 69.109375 
Q 53.90625 64.015625 53.90625 55.328125 
Q 53.90625 49.265625 50.4375 45.09375 
Q 46.96875 40.921875 40.578125 39.3125 
z
" id="DejaVuSans-51"/>
       <path d="M 8.015625 75.875 
L 15.828125 75.875 
Q 23.140625 64.359375 26.78125 53.3125 
Q 30.421875 42.28125 30.421875 31.390625 
Q 30.421875 20.453125 26.78125 9.375 
Q 23.140625 -1.703125 15.828125 -13.1875 
L 8.015625 -13.1875 
Q 14.5 -2 17.703125 9.0625 
Q 20.90625 20.125 20.90625 31.390625 
Q 20.90625 42.671875 17.703125 53.65625 
Q 14.5 64.65625 8.015625 75.875 
z
" id="DejaVuSans-41"/>
      </defs>
      <use xlink:href="#DejaVuSans-73"/>
      <use x="29.492188" xlink:href="#DejaVuSans-68"/>
      <use x="106.494141" xlink:href="#DejaVuSans-69"/>
      <use x="169.677734" xlink:href="#DejaVuSans-65"/>
      <use x="238.085938" xlink:href="#DejaVuSans-82"/>
      <use x="307.568359" xlink:href="#DejaVuSans-83"/>
      <use x="371.044922" xlink:href="#DejaVuSans-32"/>
      <use x="402.832031" xlink:href="#DejaVuSans-80"/>
      <use x="463.134766" xlink:href="#DejaVuSans-68"/>
      <use x="540.136719" xlink:href="#DejaVuSans-32"/>
      <use x="571.923828" xlink:href="#DejaVuSans-40"/>
      <use x="610.9375" xlink:href="#DejaVuSans-65"/>
      <use x="679.345703" xlink:href="#DejaVuSans-85"/>
      <use x="752.539062" xlink:href="#DejaVuSans-67"/>
      <use x="822.363281" xlink:href="#DejaVuSans-32"/>
      <use x="854.150391" xlink:href="#DejaVuSans-61"/>
      <use x="937.939453" xlink:href="#DejaVuSans-32"/>
      <use x="969.726562" xlink:href="#DejaVuSans-48"/>
      <use x="1033.349609" xlink:href="#DejaVuSans-46"/>
      <use x="1065.136719" xlink:href="#DejaVuSans-55"/>
      <use x="1128.759766" xlink:href="#DejaVuSans-51"/>
      <use x="1192.382812" xlink:href="#DejaVuSans-41"/>
     </g>
    </g>
   </g>
  </g>
 </g>
 <defs>
  <clipPath id="pc2393c8586">
   <rect height="221.76" width="334.8" x="54" y="34.56"/>
  </clipPath>
 </defs>
</svg>
