<?xml version="1.0" encoding="utf-8" standalone="no"?>
<!DOCTYPE svg PUBLIC "-//W3C//DTD SVG 1.1//EN"
  "http://www.w3.org/Graphics/SVG/1.1/DTD/svg11.dtd">
<!-- Created with matplotlib (https://matplotlib.org/) -->
<svg height="288pt" version="1.1" viewBox="0 0 432 288" width="432pt" xmlns="http://www.w3.org/2000/svg" xmlns:xlink="http://www.w3.org/1999/xlink">
 <metadata>
  <rdf:RDF xmlns:cc="http://creativecommons.org/ns#" xmlns:dc="http://purl.org/dc/elements/1.1/" xmlns:rdf="http://www.w3.org/1999/02/22-rdf-syntax-ns#">
   <cc:Work>
    <dc:type rdf:resource="http://purl.org/dc/dcmitype/StillImage"/>
    <dc:date>2021-10-23T20:22:26.960179</dc:date>
    <dc:format>image/svg+xml</dc:format>
    <dc:creator>
     <cc:Agent>
      <dc:title>Matplotlib v3.3.4, https://matplotlib.org/</dc:title>
     </cc:Agent>
    </dc:creator>
   </cc:Work>
  </rdf:RDF>
 </metadata>
 <defs>
  <style type="text/css">*{stroke-linecap:butt;stroke-linejoin:round;}</style>
 </defs>
 <g id="figure_1">
  <g id="patch_1">
   <path d="M 0 288 
L 432 288 
L 432 0 
L 0 0 
z
" style="fill:none;"/>
  </g>
  <g id="axes_1">
   <g id="patch_2">
    <path d="M 54 252 
L 388.8 252 
L 388.8 34.56 
L 54 34.56 
z
" style="fill:#ffffff;"/>
   </g>
   <g id="matplotlib.axis_1">
    <g id="xtick_1">
     <g id="line2d_1">
      <defs>
       <path d="M 0 0 
L 0 3.5 
" id="m4e8a8f46a7" style="stroke:#000000;stroke-width:0.8;"/>
      </defs>
      <g>
       <use style="stroke:#000000;stroke-width:0.8;" x="57.282353" xlink:href="#m4e8a8f46a7" y="252"/>
      </g>
     </g>
     <g id="text_1">
      <!-- 0.00 -->
      <g transform="translate(37.24329 272.677188)scale(0.18 -0.18)">
       <defs>
        <path d="M 31.78125 66.40625 
Q 24.171875 66.40625 20.328125 58.90625 
Q 16.5 51.421875 16.5 36.375 
Q 16.5 21.390625 20.328125 13.890625 
Q 24.171875 6.390625 31.78125 6.390625 
Q 39.453125 6.390625 43.28125 13.890625 
Q 47.125 21.390625 47.125 36.375 
Q 47.125 51.421875 43.28125 58.90625 
Q 39.453125 66.40625 31.78125 66.40625 
z
M 31.78125 74.21875 
Q 44.046875 74.21875 50.515625 64.515625 
Q 56.984375 54.828125 56.984375 36.375 
Q 56.984375 17.96875 50.515625 8.265625 
Q 44.046875 -1.421875 31.78125 -1.421875 
Q 19.53125 -1.421875 13.0625 8.265625 
Q 6.59375 17.96875 6.59375 36.375 
Q 6.59375 54.828125 13.0625 64.515625 
Q 19.53125 74.21875 31.78125 74.21875 
z
" id="DejaVuSans-48"/>
        <path d="M 10.6875 12.40625 
L 21 12.40625 
L 21 0 
L 10.6875 0 
z
" id="DejaVuSans-46"/>
       </defs>
       <use xlink:href="#DejaVuSans-48"/>
       <use x="63.623047" xlink:href="#DejaVuSans-46"/>
       <use x="95.410156" xlink:href="#DejaVuSans-48"/>
       <use x="159.033203" xlink:href="#DejaVuSans-48"/>
      </g>
     </g>
    </g>
    <g id="xtick_2">
     <g id="line2d_2">
      <g>
       <use style="stroke:#000000;stroke-width:0.8;" x="139.341176" xlink:href="#m4e8a8f46a7" y="252"/>
      </g>
     </g>
     <g id="text_2">
      <!-- 0.25 -->
      <g transform="translate(119.302114 272.677188)scale(0.18 -0.18)">
       <defs>
        <path d="M 19.1875 8.296875 
L 53.609375 8.296875 
L 53.609375 0 
L 7.328125 0 
L 7.328125 8.296875 
Q 12.9375 14.109375 22.625 23.890625 
Q 32.328125 33.6875 34.8125 36.53125 
Q 39.546875 41.84375 41.421875 45.53125 
Q 43.3125 49.21875 43.3125 52.78125 
Q 43.3125 58.59375 39.234375 62.25 
Q 35.15625 65.921875 28.609375 65.921875 
Q 23.96875 65.921875 18.8125 64.3125 
Q 13.671875 62.703125 7.8125 59.421875 
L 7.8125 69.390625 
Q 13.765625 71.78125 18.9375 73 
Q 24.125 74.21875 28.421875 74.21875 
Q 39.75 74.21875 46.484375 68.546875 
Q 53.21875 62.890625 53.21875 53.421875 
Q 53.21875 48.921875 51.53125 44.890625 
Q 49.859375 40.875 45.40625 35.40625 
Q 44.1875 33.984375 37.640625 27.21875 
Q 31.109375 20.453125 19.1875 8.296875 
z
" id="DejaVuSans-50"/>
        <path d="M 10.796875 72.90625 
L 49.515625 72.90625 
L 49.515625 64.59375 
L 19.828125 64.59375 
L 19.828125 46.734375 
Q 21.96875 47.46875 24.109375 47.828125 
Q 26.265625 48.1875 28.421875 48.1875 
Q 40.625 48.1875 47.75 41.5 
Q 54.890625 34.8125 54.890625 23.390625 
Q 54.890625 11.625 47.5625 5.09375 
Q 40.234375 -1.421875 26.90625 -1.421875 
Q 22.3125 -1.421875 17.546875 -0.640625 
Q 12.796875 0.140625 7.71875 1.703125 
L 7.71875 11.625 
Q 12.109375 9.234375 16.796875 8.0625 
Q 21.484375 6.890625 26.703125 6.890625 
Q 35.15625 6.890625 40.078125 11.328125 
Q 45.015625 15.765625 45.015625 23.390625 
Q 45.015625 31 40.078125 35.4375 
Q 35.15625 39.890625 26.703125 39.890625 
Q 22.75 39.890625 18.8125 39.015625 
Q 14.890625 38.140625 10.796875 36.28125 
z
" id="DejaVuSans-53"/>
       </defs>
       <use xlink:href="#DejaVuSans-48"/>
       <use x="63.623047" xlink:href="#DejaVuSans-46"/>
       <use x="95.410156" xlink:href="#DejaVuSans-50"/>
       <use x="159.033203" xlink:href="#DejaVuSans-53"/>
      </g>
     </g>
    </g>
    <g id="xtick_3">
     <g id="line2d_3">
      <g>
       <use style="stroke:#000000;stroke-width:0.8;" x="221.4" xlink:href="#m4e8a8f46a7" y="252"/>
      </g>
     </g>
     <g id="text_3">
      <!-- 0.50 -->
      <g transform="translate(201.360938 272.677188)scale(0.18 -0.18)">
       <use xlink:href="#DejaVuSans-48"/>
       <use x="63.623047" xlink:href="#DejaVuSans-46"/>
       <use x="95.410156" xlink:href="#DejaVuSans-53"/>
       <use x="159.033203" xlink:href="#DejaVuSans-48"/>
      </g>
     </g>
    </g>
    <g id="xtick_4">
     <g id="line2d_4">
      <g>
       <use style="stroke:#000000;stroke-width:0.8;" x="303.458824" xlink:href="#m4e8a8f46a7" y="252"/>
      </g>
     </g>
     <g id="text_4">
      <!-- 0.75 -->
      <g transform="translate(283.419761 272.677188)scale(0.18 -0.18)">
       <defs>
        <path d="M 8.203125 72.90625 
L 55.078125 72.90625 
L 55.078125 68.703125 
L 28.609375 0 
L 18.3125 0 
L 43.21875 64.59375 
L 8.203125 64.59375 
z
" id="DejaVuSans-55"/>
       </defs>
       <use xlink:href="#DejaVuSans-48"/>
       <use x="63.623047" xlink:href="#DejaVuSans-46"/>
       <use x="95.410156" xlink:href="#DejaVuSans-55"/>
       <use x="159.033203" xlink:href="#DejaVuSans-53"/>
      </g>
     </g>
    </g>
    <g id="xtick_5">
     <g id="line2d_5">
      <g>
       <use style="stroke:#000000;stroke-width:0.8;" x="385.517647" xlink:href="#m4e8a8f46a7" y="252"/>
      </g>
     </g>
     <g id="text_5">
      <!-- 1.00 -->
      <g transform="translate(365.478585 272.677188)scale(0.18 -0.18)">
       <defs>
        <path d="M 12.40625 8.296875 
L 28.515625 8.296875 
L 28.515625 63.921875 
L 10.984375 60.40625 
L 10.984375 69.390625 
L 28.421875 72.90625 
L 38.28125 72.90625 
L 38.28125 8.296875 
L 54.390625 8.296875 
L 54.390625 0 
L 12.40625 0 
z
" id="DejaVuSans-49"/>
       </defs>
       <use xlink:href="#DejaVuSans-49"/>
       <use x="63.623047" xlink:href="#DejaVuSans-46"/>
       <use x="95.410156" xlink:href="#DejaVuSans-48"/>
       <use x="159.033203" xlink:href="#DejaVuSans-48"/>
      </g>
     </g>
    </g>
    <g id="text_6">
     <!-- False Positive Rate -->
     <g transform="translate(156.347031 291.058438)scale(0.14 -0.14)">
      <defs>
       <path d="M 9.8125 72.90625 
L 51.703125 72.90625 
L 51.703125 64.59375 
L 19.671875 64.59375 
L 19.671875 43.109375 
L 48.578125 43.109375 
L 48.578125 34.8125 
L 19.671875 34.8125 
L 19.671875 0 
L 9.8125 0 
z
" id="DejaVuSans-70"/>
       <path d="M 34.28125 27.484375 
Q 23.390625 27.484375 19.1875 25 
Q 14.984375 22.515625 14.984375 16.5 
Q 14.984375 11.71875 18.140625 8.90625 
Q 21.296875 6.109375 26.703125 6.109375 
Q 34.1875 6.109375 38.703125 11.40625 
Q 43.21875 16.703125 43.21875 25.484375 
L 43.21875 27.484375 
z
M 52.203125 31.203125 
L 52.203125 0 
L 43.21875 0 
L 43.21875 8.296875 
Q 40.140625 3.328125 35.546875 0.953125 
Q 30.953125 -1.421875 24.3125 -1.421875 
Q 15.921875 -1.421875 10.953125 3.296875 
Q 6 8.015625 6 15.921875 
Q 6 25.140625 12.171875 29.828125 
Q 18.359375 34.515625 30.609375 34.515625 
L 43.21875 34.515625 
L 43.21875 35.40625 
Q 43.21875 41.609375 39.140625 45 
Q 35.0625 48.390625 27.6875 48.390625 
Q 23 48.390625 18.546875 47.265625 
Q 14.109375 46.140625 10.015625 43.890625 
L 10.015625 52.203125 
Q 14.9375 54.109375 19.578125 55.046875 
Q 24.21875 56 28.609375 56 
Q 40.484375 56 46.34375 49.84375 
Q 52.203125 43.703125 52.203125 31.203125 
z
" id="DejaVuSans-97"/>
       <path d="M 9.421875 75.984375 
L 18.40625 75.984375 
L 18.40625 0 
L 9.421875 0 
z
" id="DejaVuSans-108"/>
       <path d="M 44.28125 53.078125 
L 44.28125 44.578125 
Q 40.484375 46.53125 36.375 47.5 
Q 32.28125 48.484375 27.875 48.484375 
Q 21.1875 48.484375 17.84375 46.4375 
Q 14.5 44.390625 14.5 40.28125 
Q 14.5 37.15625 16.890625 35.375 
Q 19.28125 33.59375 26.515625 31.984375 
L 29.59375 31.296875 
Q 39.15625 29.25 43.1875 25.515625 
Q 47.21875 21.78125 47.21875 15.09375 
Q 47.21875 7.46875 41.1875 3.015625 
Q 35.15625 -1.421875 24.609375 -1.421875 
Q 20.21875 -1.421875 15.453125 -0.5625 
Q 10.6875 0.296875 5.421875 2 
L 5.421875 11.28125 
Q 10.40625 8.6875 15.234375 7.390625 
Q 20.0625 6.109375 24.8125 6.109375 
Q 31.15625 6.109375 34.5625 8.28125 
Q 37.984375 10.453125 37.984375 14.40625 
Q 37.984375 18.0625 35.515625 20.015625 
Q 33.0625 21.96875 24.703125 23.78125 
L 21.578125 24.515625 
Q 13.234375 26.265625 9.515625 29.90625 
Q 5.8125 33.546875 5.8125 39.890625 
Q 5.8125 47.609375 11.28125 51.796875 
Q 16.75 56 26.8125 56 
Q 31.78125 56 36.171875 55.265625 
Q 40.578125 54.546875 44.28125 53.078125 
z
" id="DejaVuSans-115"/>
       <path d="M 56.203125 29.59375 
L 56.203125 25.203125 
L 14.890625 25.203125 
Q 15.484375 15.921875 20.484375 11.0625 
Q 25.484375 6.203125 34.421875 6.203125 
Q 39.59375 6.203125 44.453125 7.46875 
Q 49.3125 8.734375 54.109375 11.28125 
L 54.109375 2.78125 
Q 49.265625 0.734375 44.1875 -0.34375 
Q 39.109375 -1.421875 33.890625 -1.421875 
Q 20.796875 -1.421875 13.15625 6.1875 
Q 5.515625 13.8125 5.515625 26.8125 
Q 5.515625 40.234375 12.765625 48.109375 
Q 20.015625 56 32.328125 56 
Q 43.359375 56 49.78125 48.890625 
Q 56.203125 41.796875 56.203125 29.59375 
z
M 47.21875 32.234375 
Q 47.125 39.59375 43.09375 43.984375 
Q 39.0625 48.390625 32.421875 48.390625 
Q 24.90625 48.390625 20.390625 44.140625 
Q 15.875 39.890625 15.1875 32.171875 
z
" id="DejaVuSans-101"/>
       <path id="DejaVuSans-32"/>
       <path d="M 19.671875 64.796875 
L 19.671875 37.40625 
L 32.078125 37.40625 
Q 38.96875 37.40625 42.71875 40.96875 
Q 46.484375 44.53125 46.484375 51.125 
Q 46.484375 57.671875 42.71875 61.234375 
Q 38.96875 64.796875 32.078125 64.796875 
z
M 9.8125 72.90625 
L 32.078125 72.90625 
Q 44.34375 72.90625 50.609375 67.359375 
Q 56.890625 61.8125 56.890625 51.125 
Q 56.890625 40.328125 50.609375 34.8125 
Q 44.34375 29.296875 32.078125 29.296875 
L 19.671875 29.296875 
L 19.671875 0 
L 9.8125 0 
z
" id="DejaVuSans-80"/>
       <path d="M 30.609375 48.390625 
Q 23.390625 48.390625 19.1875 42.75 
Q 14.984375 37.109375 14.984375 27.296875 
Q 14.984375 17.484375 19.15625 11.84375 
Q 23.34375 6.203125 30.609375 6.203125 
Q 37.796875 6.203125 41.984375 11.859375 
Q 46.1875 17.53125 46.1875 27.296875 
Q 46.1875 37.015625 41.984375 42.703125 
Q 37.796875 48.390625 30.609375 48.390625 
z
M 30.609375 56 
Q 42.328125 56 49.015625 48.375 
Q 55.71875 40.765625 55.71875 27.296875 
Q 55.71875 13.875 49.015625 6.21875 
Q 42.328125 -1.421875 30.609375 -1.421875 
Q 18.84375 -1.421875 12.171875 6.21875 
Q 5.515625 13.875 5.515625 27.296875 
Q 5.515625 40.765625 12.171875 48.375 
Q 18.84375 56 30.609375 56 
z
" id="DejaVuSans-111"/>
       <path d="M 9.421875 54.6875 
L 18.40625 54.6875 
L 18.40625 0 
L 9.421875 0 
z
M 9.421875 75.984375 
L 18.40625 75.984375 
L 18.40625 64.59375 
L 9.421875 64.59375 
z
" id="DejaVuSans-105"/>
       <path d="M 18.3125 70.21875 
L 18.3125 54.6875 
L 36.8125 54.6875 
L 36.8125 47.703125 
L 18.3125 47.703125 
L 18.3125 18.015625 
Q 18.3125 11.328125 20.140625 9.421875 
Q 21.96875 7.515625 27.59375 7.515625 
L 36.8125 7.515625 
L 36.8125 0 
L 27.59375 0 
Q 17.1875 0 13.234375 3.875 
Q 9.28125 7.765625 9.28125 18.015625 
L 9.28125 47.703125 
L 2.6875 47.703125 
L 2.6875 54.6875 
L 9.28125 54.6875 
L 9.28125 70.21875 
z
" id="DejaVuSans-116"/>
       <path d="M 2.984375 54.6875 
L 12.5 54.6875 
L 29.59375 8.796875 
L 46.6875 54.6875 
L 56.203125 54.6875 
L 35.6875 0 
L 23.484375 0 
z
" id="DejaVuSans-118"/>
       <path d="M 44.390625 34.1875 
Q 47.5625 33.109375 50.5625 29.59375 
Q 53.5625 26.078125 56.59375 19.921875 
L 66.609375 0 
L 56 0 
L 46.6875 18.703125 
Q 43.0625 26.03125 39.671875 28.421875 
Q 36.28125 30.8125 30.421875 30.8125 
L 19.671875 30.8125 
L 19.671875 0 
L 9.8125 0 
L 9.8125 72.90625 
L 32.078125 72.90625 
Q 44.578125 72.90625 50.734375 67.671875 
Q 56.890625 62.453125 56.890625 51.90625 
Q 56.890625 45.015625 53.6875 40.46875 
Q 50.484375 35.9375 44.390625 34.1875 
z
M 19.671875 64.796875 
L 19.671875 38.921875 
L 32.078125 38.921875 
Q 39.203125 38.921875 42.84375 42.21875 
Q 46.484375 45.515625 46.484375 51.90625 
Q 46.484375 58.296875 42.84375 61.546875 
Q 39.203125 64.796875 32.078125 64.796875 
z
" id="DejaVuSans-82"/>
      </defs>
      <use xlink:href="#DejaVuSans-70"/>
      <use x="48.394531" xlink:href="#DejaVuSans-97"/>
      <use x="109.673828" xlink:href="#DejaVuSans-108"/>
      <use x="137.457031" xlink:href="#DejaVuSans-115"/>
      <use x="189.556641" xlink:href="#DejaVuSans-101"/>
      <use x="251.080078" xlink:href="#DejaVuSans-32"/>
      <use x="282.867188" xlink:href="#DejaVuSans-80"/>
      <use x="339.544922" xlink:href="#DejaVuSans-111"/>
      <use x="400.726562" xlink:href="#DejaVuSans-115"/>
      <use x="452.826172" xlink:href="#DejaVuSans-105"/>
      <use x="480.609375" xlink:href="#DejaVuSans-116"/>
      <use x="519.818359" xlink:href="#DejaVuSans-105"/>
      <use x="547.601562" xlink:href="#DejaVuSans-118"/>
      <use x="606.78125" xlink:href="#DejaVuSans-101"/>
      <use x="668.304688" xlink:href="#DejaVuSans-32"/>
      <use x="700.091797" xlink:href="#DejaVuSans-82"/>
      <use x="767.324219" xlink:href="#DejaVuSans-97"/>
      <use x="828.603516" xlink:href="#DejaVuSans-116"/>
      <use x="867.8125" xlink:href="#DejaVuSans-101"/>
     </g>
    </g>
   </g>
   <g id="matplotlib.axis_2">
    <g id="ytick_1">
     <g id="line2d_6">
      <defs>
       <path d="M 0 0 
L -3.5 0 
" id="mfeab255eae" style="stroke:#000000;stroke-width:0.8;"/>
      </defs>
      <g>
       <use style="stroke:#000000;stroke-width:0.8;" x="54" xlink:href="#mfeab255eae" y="249.868235"/>
      </g>
     </g>
     <g id="text_7">
      <!-- 0.00 -->
      <g transform="translate(6.921875 256.706829)scale(0.18 -0.18)">
       <use xlink:href="#DejaVuSans-48"/>
       <use x="63.623047" xlink:href="#DejaVuSans-46"/>
       <use x="95.410156" xlink:href="#DejaVuSans-48"/>
       <use x="159.033203" xlink:href="#DejaVuSans-48"/>
      </g>
     </g>
    </g>
    <g id="ytick_2">
     <g id="line2d_7">
      <g>
       <use style="stroke:#000000;stroke-width:0.8;" x="54" xlink:href="#mfeab255eae" y="196.574118"/>
      </g>
     </g>
     <g id="text_8">
      <!-- 0.25 -->
      <g transform="translate(6.921875 203.412711)scale(0.18 -0.18)">
       <use xlink:href="#DejaVuSans-48"/>
       <use x="63.623047" xlink:href="#DejaVuSans-46"/>
       <use x="95.410156" xlink:href="#DejaVuSans-50"/>
       <use x="159.033203" xlink:href="#DejaVuSans-53"/>
      </g>
     </g>
    </g>
    <g id="ytick_3">
     <g id="line2d_8">
      <g>
       <use style="stroke:#000000;stroke-width:0.8;" x="54" xlink:href="#mfeab255eae" y="143.28"/>
      </g>
     </g>
     <g id="text_9">
      <!-- 0.50 -->
      <g transform="translate(6.921875 150.118594)scale(0.18 -0.18)">
       <use xlink:href="#DejaVuSans-48"/>
       <use x="63.623047" xlink:href="#DejaVuSans-46"/>
       <use x="95.410156" xlink:href="#DejaVuSans-53"/>
       <use x="159.033203" xlink:href="#DejaVuSans-48"/>
      </g>
     </g>
    </g>
    <g id="ytick_4">
     <g id="line2d_9">
      <g>
       <use style="stroke:#000000;stroke-width:0.8;" x="54" xlink:href="#mfeab255eae" y="89.985882"/>
      </g>
     </g>
     <g id="text_10">
      <!-- 0.75 -->
      <g transform="translate(6.921875 96.824476)scale(0.18 -0.18)">
       <use xlink:href="#DejaVuSans-48"/>
       <use x="63.623047" xlink:href="#DejaVuSans-46"/>
       <use x="95.410156" xlink:href="#DejaVuSans-55"/>
       <use x="159.033203" xlink:href="#DejaVuSans-53"/>
      </g>
     </g>
    </g>
    <g id="ytick_5">
     <g id="line2d_10">
      <g>
       <use style="stroke:#000000;stroke-width:0.8;" x="54" xlink:href="#mfeab255eae" y="36.691765"/>
      </g>
     </g>
     <g id="text_11">
      <!-- 1.00 -->
      <g transform="translate(6.921875 43.530358)scale(0.18 -0.18)">
       <use xlink:href="#DejaVuSans-49"/>
       <use x="63.623047" xlink:href="#DejaVuSans-46"/>
       <use x="95.410156" xlink:href="#DejaVuSans-48"/>
       <use x="159.033203" xlink:href="#DejaVuSans-48"/>
      </g>
     </g>
    </g>
    <g id="text_12">
     <!-- True Positive Rate -->
     <g transform="translate(0.010312 205.621563)rotate(-90)scale(0.14 -0.14)">
      <defs>
       <path d="M -0.296875 72.90625 
L 61.375 72.90625 
L 61.375 64.59375 
L 35.5 64.59375 
L 35.5 0 
L 25.59375 0 
L 25.59375 64.59375 
L -0.296875 64.59375 
z
" id="DejaVuSans-84"/>
       <path d="M 41.109375 46.296875 
Q 39.59375 47.171875 37.8125 47.578125 
Q 36.03125 48 33.890625 48 
Q 26.265625 48 22.1875 43.046875 
Q 18.109375 38.09375 18.109375 28.8125 
L 18.109375 0 
L 9.078125 0 
L 9.078125 54.6875 
L 18.109375 54.6875 
L 18.109375 46.1875 
Q 20.953125 51.171875 25.484375 53.578125 
Q 30.03125 56 36.53125 56 
Q 37.453125 56 38.578125 55.875 
Q 39.703125 55.765625 41.0625 55.515625 
z
" id="DejaVuSans-114"/>
       <path d="M 8.5 21.578125 
L 8.5 54.6875 
L 17.484375 54.6875 
L 17.484375 21.921875 
Q 17.484375 14.15625 20.5 10.265625 
Q 23.53125 6.390625 29.59375 6.390625 
Q 36.859375 6.390625 41.078125 11.03125 
Q 45.3125 15.671875 45.3125 23.6875 
L 45.3125 54.6875 
L 54.296875 54.6875 
L 54.296875 0 
L 45.3125 0 
L 45.3125 8.40625 
Q 42.046875 3.421875 37.71875 1 
Q 33.40625 -1.421875 27.6875 -1.421875 
Q 18.265625 -1.421875 13.375 4.4375 
Q 8.5 10.296875 8.5 21.578125 
z
M 31.109375 56 
z
" id="DejaVuSans-117"/>
      </defs>
      <use xlink:href="#DejaVuSans-84"/>
      <use x="46.333984" xlink:href="#DejaVuSans-114"/>
      <use x="87.447266" xlink:href="#DejaVuSans-117"/>
      <use x="150.826172" xlink:href="#DejaVuSans-101"/>
      <use x="212.349609" xlink:href="#DejaVuSans-32"/>
      <use x="244.136719" xlink:href="#DejaVuSans-80"/>
      <use x="300.814453" xlink:href="#DejaVuSans-111"/>
      <use x="361.996094" xlink:href="#DejaVuSans-115"/>
      <use x="414.095703" xlink:href="#DejaVuSans-105"/>
      <use x="441.878906" xlink:href="#DejaVuSans-116"/>
      <use x="481.087891" xlink:href="#DejaVuSans-105"/>
      <use x="508.871094" xlink:href="#DejaVuSans-118"/>
      <use x="568.050781" xlink:href="#DejaVuSans-101"/>
      <use x="629.574219" xlink:href="#DejaVuSans-32"/>
      <use x="661.361328" xlink:href="#DejaVuSans-82"/>
      <use x="728.59375" xlink:href="#DejaVuSans-97"/>
      <use x="789.873047" xlink:href="#DejaVuSans-116"/>
      <use x="829.082031" xlink:href="#DejaVuSans-101"/>
     </g>
    </g>
   </g>
   <g id="line2d_11">
    <path clip-path="url(#p67255dcbe6)" d="M 57.282353 249.868235 
L 57.295264 249.868235 
L 57.390334 249.287373 
L 57.420851 249.287373 
L 57.461931 248.851726 
L 57.535874 248.851726 
L 57.613339 248.125648 
L 57.755358 248.125648 
L 57.851603 247.39957 
L 57.897377 247.39957 
L 57.983058 246.383061 
L 58.015922 246.383061 
L 58.119209 245.656983 
L 58.161462 245.656983 
L 58.222495 245.076121 
L 58.328129 245.076121 
L 58.425547 244.350043 
L 58.441979 244.350043 
L 58.521792 243.914397 
L 58.571088 243.914397 
L 58.664984 243.043103 
L 58.693153 243.043103 
L 58.693153 242.897887 
L 58.909116 242.897887 
L 59.01475 242.317025 
L 59.150901 242.317025 
L 59.199023 241.881378 
L 59.372732 241.881378 
L 59.384469 241.590947 
L 59.547615 241.590947 
L 59.589869 241.300516 
L 59.906771 241.300516 
L 60.010057 240.138791 
L 60.055832 240.138791 
L 60.088696 239.703145 
L 60.210762 239.703145 
L 60.307006 239.412714 
L 60.457241 239.412714 
L 60.457241 239.267498 
L 60.760058 239.267498 
L 60.866866 238.831851 
L 60.872735 238.831851 
L 60.974847 238.250989 
L 60.992453 238.250989 
L 60.992453 238.105773 
L 61.229543 238.105773 
L 61.335177 237.524911 
L 61.411468 237.524911 
L 61.483064 236.798833 
L 61.565224 236.798833 
L 61.606304 236.363186 
L 61.683769 236.363186 
L 61.690811 236.072755 
L 61.772971 236.072755 
L 61.853957 236.072755 
L 61.931422 235.346677 
L 61.972502 235.346677 
L 62.072267 235.056246 
L 62.087525 235.056246 
L 62.087525 234.911031 
L 62.201375 234.911031 
L 62.287056 234.620599 
L 62.454897 234.620599 
L 62.530014 234.039737 
L 62.585179 234.039737 
L 62.641517 233.749306 
L 62.715461 233.749306 
L 62.804663 233.313659 
L 62.8387 233.313659 
L 62.922034 233.023228 
L 63.059358 233.023228 
L 63.105133 232.732797 
L 63.195508 232.732797 
L 63.243631 232.29715 
L 63.427903 232.29715 
L 63.495978 231.571072 
L 63.559359 231.571072 
L 63.612176 231.280641 
L 63.745979 231.280641 
L 63.850439 230.99021 
L 63.919688 230.99021 
L 63.919688 230.844994 
L 64.031191 230.844994 
L 64.109829 229.973701 
L 64.216637 229.973701 
L 64.216637 229.828485 
L 64.244806 229.828485 
L 64.378609 229.828485 
L 64.399736 229.538054 
L 64.431426 229.538054 
L 64.605135 229.538054 
L 64.626262 229.102407 
L 64.735417 229.102407 
L 64.816403 228.666761 
L 64.842225 228.666761 
L 64.912647 228.666761 
L 64.972507 228.231114 
L 65.069925 228.231114 
L 65.118047 227.795467 
L 65.189643 227.795467 
L 65.189643 227.650252 
L 65.199033 227.650252 
L 65.314057 227.650252 
L 65.379784 227.069389 
L 65.389174 227.069389 
L 65.527672 227.069389 
L 65.586358 226.633743 
L 65.742461 226.633743 
L 65.753024 226.343311 
L 65.972508 226.343311 
L 65.972508 226.198096 
L 66.085185 226.198096 
L 66.19434 225.907665 
L 66.24833 225.907665 
L 66.281194 225.472018 
L 66.411476 225.472018 
L 66.519458 224.455509 
L 66.521805 224.455509 
L 66.611007 224.455509 
L 66.707251 223.874647 
L 66.723683 223.874647 
L 66.831665 223.584215 
L 66.866876 223.584215 
L 66.907956 223.293784 
L 67.007721 223.293784 
L 67.014764 222.858138 
L 67.12744 222.858138 
L 67.129787 222.567706 
L 67.20021 222.567706 
L 67.305844 222.567706 
L 67.319929 222.277275 
L 67.521807 222.277275 
L 67.625093 221.986844 
L 68.126268 221.986844 
L 68.236597 221.405982 
L 68.269461 221.405982 
L 68.372747 220.970335 
L 68.397395 220.970335 
L 68.399743 220.679904 
L 68.54763 220.679904 
L 68.612184 220.389473 
L 68.70256 220.389473 
L 68.70256 220.244257 
L 68.795283 220.244257 
L 68.915002 220.244257 
L 68.915002 220.099042 
L 69.11688 220.099042 
L 69.15796 219.663395 
L 69.331669 219.663395 
L 69.331669 219.518179 
L 69.393876 219.518179 
L 69.483078 219.518179 
L 69.587538 219.227748 
L 69.622749 219.227748 
L 69.733078 218.50167 
L 70.019464 218.50167 
L 70.128619 217.775592 
L 70.161483 217.775592 
L 70.257727 217.339946 
L 70.281201 217.339946 
L 70.32815 217.049514 
L 70.412657 217.049514 
L 70.518291 216.178221 
L 70.524159 216.178221 
L 70.524159 216.033005 
L 70.598103 216.033005 
L 70.722516 216.033005 
L 70.818761 215.452143 
L 70.889183 215.452143 
L 70.954911 215.161712 
L 71.088714 215.161712 
L 71.194348 214.726065 
L 71.209606 214.726065 
L 71.290592 214.290418 
L 71.461954 214.290418 
L 71.532377 213.999987 
L 71.55233 213.999987 
L 71.687307 213.999987 
L 71.784725 213.56434 
L 71.882143 213.56434 
L 71.882143 213.419125 
L 71.951392 213.419125 
L 72.03003 213.419125 
L 72.03003 213.273909 
L 72.152096 213.273909 
L 72.218998 212.838263 
L 72.46313 212.838263 
L 72.555853 212.547831 
L 72.591064 212.547831 
L 72.656792 212.2574 
L 72.749515 212.2574 
L 72.750689 211.966969 
L 72.787074 211.966969 
L 73.025337 211.966969 
L 73.025337 211.821753 
L 73.277685 211.821753 
L 73.336371 211.531322 
L 73.415009 211.531322 
L 73.415009 211.386107 
L 73.55116 211.386107 
L 73.580502 211.095676 
L 73.764775 211.095676 
L 73.856324 210.369598 
L 73.911489 210.369598 
L 74.018297 209.933951 
L 74.078156 209.933951 
L 74.078156 209.788735 
L 74.235433 209.788735 
L 74.235433 209.64352 
L 74.309377 209.64352 
L 74.3798 209.64352 
L 74.3798 209.498304 
L 74.511255 209.498304 
L 74.511255 209.353089 
L 74.584025 209.353089 
L 74.676748 209.353089 
L 74.677922 209.062657 
L 74.805857 209.062657 
L 74.805857 208.917442 
L 74.956092 208.917442 
L 75.024167 208.481795 
L 75.092242 208.481795 
L 75.169707 208.046148 
L 75.242477 208.046148 
L 75.242477 207.900933 
L 75.419707 207.900933 
L 75.488956 207.465286 
L 75.551163 207.465286 
L 75.582853 207.174855 
L 75.882149 207.174855 
L 75.952572 206.739208 
L 76.003042 206.739208 
L 76.085201 206.158346 
L 76.265953 206.158346 
L 76.368066 205.722699 
L 76.453747 205.722699 
L 76.453747 205.577484 
L 76.567597 205.577484 
L 76.638019 205.287052 
L 76.735437 205.287052 
L 76.763606 204.996621 
L 76.970179 204.996621 
L 76.970179 204.851406 
L 77.051166 204.851406 
L 77.084029 204.851406 
L 77.084029 204.70619 
L 77.162668 204.70619 
L 77.221354 204.70619 
L 77.246002 204.270543 
L 77.424406 204.270543 
L 77.424406 204.125328 
L 77.442011 204.125328 
L 77.747176 204.125328 
L 77.817599 203.689681 
L 77.823467 203.689681 
L 77.996003 203.689681 
L 78.004219 203.39925 
L 78.128632 203.39925 
L 78.199055 203.108819 
L 78.296473 203.108819 
L 78.399759 202.382741 
L 78.505393 202.382741 
L 78.584032 202.09231 
L 78.586379 202.09231 
L 78.625112 202.09231 
L 78.625112 201.947094 
L 78.772999 201.947094 
L 78.862201 201.656663 
L 78.897413 201.656663 
L 79.005394 201.075801 
L 79.057037 201.075801 
L 79.057037 200.930585 
L 79.251873 200.930585 
L 79.251873 200.785369 
L 79.363376 200.785369 
L 79.363376 200.640154 
L 79.488963 200.640154 
L 79.488963 200.494938 
L 79.567602 200.494938 
L 79.645067 200.494938 
L 79.645067 200.349723 
L 79.825818 200.349723 
L 79.843424 200.059292 
L 80.025349 200.059292 
L 80.025349 199.914076 
L 80.192016 199.914076 
L 80.241312 199.623645 
L 80.382157 199.623645 
L 80.449059 199.333214 
L 80.497181 199.333214 
L 80.503049 199.042782 
L 80.565256 199.042782 
L 80.733097 199.042782 
L 80.837557 198.607136 
L 80.868073 198.607136 
L 80.868073 198.46192 
L 80.876289 198.46192 
L 81.039435 198.46192 
L 81.113379 198.171489 
L 81.18967 198.171489 
L 81.249529 197.881058 
L 81.282393 197.881058 
L 81.451408 197.881058 
L 81.451408 197.735842 
L 81.621596 197.735842 
L 81.700234 197.15498 
L 81.720187 197.15498 
L 81.774178 197.15498 
L 81.805868 196.719333 
L 81.832864 196.719333 
L 81.896244 196.719333 
L 81.896244 196.574118 
L 81.964319 196.574118 
L 82.007747 196.574118 
L 82.116902 196.138471 
L 82.160329 196.138471 
L 82.160329 195.993255 
L 82.226057 195.993255 
L 82.332865 195.993255 
L 82.332865 195.84804 
L 82.519485 195.84804 
L 82.548827 195.557609 
L 82.566433 195.557609 
L 82.684978 195.557609 
L 82.724884 195.267177 
L 82.891551 195.267177 
L 82.896246 194.976746 
L 82.952584 194.976746 
L 83.08404 194.976746 
L 83.1885 194.395884 
L 83.227232 194.395884 
L 83.290613 194.105453 
L 83.329345 194.105453 
L 83.361035 194.105453 
L 83.47019 193.815022 
L 83.484275 193.815022 
L 83.484275 193.669806 
L 83.681458 193.669806 
L 83.709627 193.088944 
L 83.863384 193.088944 
L 83.863384 192.943728 
L 83.945543 192.943728 
L 83.97606 192.943728 
L 84.042961 192.508081 
L 84.292962 192.508081 
L 84.330521 192.21765 
L 84.332868 192.21765 
L 84.437328 192.21765 
L 84.540615 191.636788 
L 84.717845 191.636788 
L 84.717845 191.491572 
L 84.728409 191.491572 
L 84.878644 191.491572 
L 84.969019 190.765494 
L 85.132165 190.765494 
L 85.20024 190.329848 
L 85.321133 190.329848 
L 85.325827 190.039417 
L 85.410335 190.039417 
L 85.436156 190.039417 
L 85.497189 189.748985 
L 85.571133 189.748985 
L 85.677941 189.168123 
L 85.721368 189.168123 
L 85.789443 188.877692 
L 85.943199 188.877692 
L 85.993669 188.442045 
L 86.150946 188.442045 
L 86.150946 188.29683 
L 86.309397 188.29683 
L 86.40212 187.715967 
L 86.422073 187.715967 
L 86.519491 187.280321 
L 86.573482 187.280321 
L 86.6709 186.989889 
L 86.807051 186.989889 
L 86.843436 186.554243 
L 86.98076 186.554243 
L 86.98076 186.409027 
L 87.141558 186.409027 
L 87.231934 186.118596 
L 87.310572 186.118596 
L 87.420901 185.682949 
L 87.559399 185.682949 
L 87.625127 185.247302 
L 87.632169 185.247302 
L 87.811747 185.247302 
L 87.861043 184.956871 
L 87.916207 184.956871 
L 87.994846 184.956871 
L 88.075832 184.66644 
L 88.263626 184.66644 
L 88.263626 184.521225 
L 88.533579 184.521225 
L 88.639213 184.230793 
L 88.690856 184.230793 
L 88.690856 184.085578 
L 88.781232 184.085578 
L 88.891561 184.085578 
L 88.952594 183.649931 
L 88.971373 183.649931 
L 89.068791 183.649931 
L 89.100482 183.3595 
L 89.104003 183.3595 
L 89.193205 183.3595 
L 89.193205 183.214284 
L 89.329355 183.214284 
L 89.434989 182.923853 
L 89.484285 182.923853 
L 89.517149 182.488206 
L 89.586398 182.488206 
L 89.719027 182.488206 
L 89.72607 182.197775 
L 89.835225 182.197775 
L 89.855178 181.907344 
L 89.949075 181.907344 
L 89.949075 181.762129 
L 90.051187 181.762129 
L 90.169732 181.762129 
L 90.202596 181.471697 
L 90.403301 181.471697 
L 90.471376 180.890835 
L 90.566447 180.890835 
L 90.566447 180.745619 
L 90.633348 180.745619 
L 90.777714 180.745619 
L 90.807057 180.455188 
L 90.809405 180.455188 
L 90.943208 180.455188 
L 90.963161 180.164757 
L 91.397434 180.164757 
L 91.397434 180.019542 
L 91.553537 180.019542 
L 91.553537 179.874326 
L 91.700251 179.874326 
L 91.721378 179.583895 
L 91.971378 179.583895 
L 91.971378 179.438679 
L 92.2249 179.438679 
L 92.334055 179.148248 
L 92.381004 179.148248 
L 92.458468 178.712601 
L 92.48429 178.712601 
L 92.531239 178.712601 
L 92.595793 178.42217 
L 92.615746 178.42217 
L 92.694384 178.42217 
L 92.788281 177.696092 
L 92.797671 177.696092 
L 92.849314 177.696092 
L 92.906826 177.405661 
L 93.270676 177.405661 
L 93.270676 177.260446 
L 93.371616 177.260446 
L 93.497203 177.260446 
L 93.552367 176.824799 
L 93.585231 176.824799 
L 93.703776 176.824799 
L 93.796499 176.389152 
L 93.824668 176.389152 
L 93.910349 176.098721 
L 94.082884 176.098721 
L 94.106359 175.663074 
L 94.189692 175.663074 
L 94.344622 175.663074 
L 94.396265 175.372643 
L 94.790632 175.372643 
L 94.893919 174.936996 
L 94.983121 174.936996 
L 94.983121 174.791781 
L 95.014811 174.791781 
L 95.316455 174.791781 
L 95.415046 174.50135 
L 95.758944 174.50135 
L 95.831714 174.065703 
L 95.848146 174.065703 
L 96.189695 174.065703 
L 96.281245 173.484841 
L 96.346973 173.484841 
L 96.435001 173.194409 
L 96.496034 173.194409 
L 96.599321 172.758763 
L 96.794157 172.758763 
L 96.850495 172.323116 
L 96.922091 172.323116 
L 97.024204 172.032685 
L 97.255425 172.032685 
L 97.255425 171.887469 
L 97.338758 171.887469 
L 97.402139 171.887469 
L 97.402139 171.742254 
L 97.5289 171.742254 
L 97.606364 171.451822 
L 98.019511 171.451822 
L 98.019511 171.306607 
L 98.125145 171.306607 
L 98.154487 171.306607 
L 98.247211 171.016176 
L 98.538291 171.016176 
L 98.627493 170.725745 
L 98.715521 170.725745 
L 98.778902 170.435313 
L 99.010123 170.435313 
L 99.107541 169.854451 
L 99.115757 169.854451 
L 99.133362 169.854451 
L 99.193222 169.418804 
L 99.520687 169.418804 
L 99.520687 169.273589 
L 99.625147 169.273589 
L 99.716697 169.273589 
L 99.716697 169.128373 
L 99.884537 169.128373 
L 99.918575 168.837942 
L 99.991345 168.837942 
L 100.011298 168.837942 
L 100.066462 168.547511 
L 100.355195 168.547511 
L 100.355195 168.402295 
L 100.500736 168.402295 
L 100.584069 167.966649 
L 100.652144 167.966649 
L 100.71083 167.676217 
L 100.93853 167.676217 
L 101.023037 167.240571 
L 101.132192 167.240571 
L 101.15684 166.659708 
L 101.445573 166.659708 
L 101.445573 166.514493 
L 101.625151 166.514493 
L 101.68501 166.224062 
L 101.829376 166.224062 
L 101.865761 165.93363 
L 101.892757 165.93363 
L 102.027733 165.93363 
L 102.027733 165.643199 
L 102.087593 165.643199 
L 102.288297 165.643199 
L 102.288297 165.497984 
L 102.419753 165.497984 
L 102.503086 164.917121 
L 102.72257 164.917121 
L 102.823509 164.62669 
L 102.88689 164.62669 
L 102.978439 164.045828 
L 103.201444 164.045828 
L 103.214355 163.755397 
L 103.26952 163.755397 
L 103.351679 163.755397 
L 103.459661 163.464966 
L 103.531257 163.464966 
L 103.594637 163.029319 
L 103.700271 163.029319 
L 103.700271 162.884103 
L 103.802384 162.884103 
L 104.102854 162.884103 
L 104.147455 162.448456 
L 104.176798 162.448456 
L 104.322338 162.448456 
L 104.37985 162.158025 
L 104.606376 162.158025 
L 104.676799 161.577163 
L 104.98079 161.577163 
L 105.091119 161.141516 
L 105.291823 161.141516 
L 105.291823 160.996301 
L 105.47727 160.996301 
L 105.504265 160.70587 
L 105.683843 160.70587 
L 105.733139 160.270223 
L 105.775392 160.270223 
L 105.966707 160.270223 
L 106.021872 159.834576 
L 106.158022 159.834576 
L 106.158022 159.68936 
L 106.160369 159.68936 
L 106.568821 159.68936 
L 106.568821 159.544145 
L 106.837601 159.544145 
L 106.85638 159.253714 
L 107.067648 159.253714 
L 107.12516 158.963283 
L 107.129855 158.963283 
L 107.608729 158.963283 
L 107.648635 158.672851 
L 107.69441 158.672851 
L 107.809433 158.672851 
L 107.895114 158.38242 
L 107.900983 158.38242 
L 107.931499 158.38242 
L 108.011312 157.946774 
L 108.365772 157.946774 
L 108.365772 157.801558 
L 108.474927 157.801558 
L 108.507791 157.801558 
L 108.584082 157.365911 
L 108.794177 157.365911 
L 108.881031 156.930264 
L 109.135727 156.930264 
L 109.193238 156.494618 
L 109.253098 156.494618 
L 109.3423 156.204187 
L 109.370469 156.204187 
L 109.379858 155.913755 
L 109.554741 155.913755 
L 109.655681 155.478109 
L 109.897465 155.478109 
L 109.897465 155.332893 
L 109.963193 155.332893 
L 110.369297 155.332893 
L 110.432677 155.042462 
L 110.474931 155.042462 
L 110.676809 155.042462 
L 110.676809 154.897246 
L 110.897467 154.897246 
L 110.897467 154.752031 
L 111.016011 154.752031 
L 111.048875 154.4616 
L 111.212021 154.4616 
L 111.318829 154.171168 
L 111.362256 154.171168 
L 111.364604 153.880737 
L 111.375167 153.880737 
L 111.55005 153.880737 
L 111.55005 153.735522 
L 111.640426 153.735522 
L 111.766013 153.735522 
L 111.766013 153.590306 
L 111.9139 153.590306 
L 111.980802 153.154659 
L 112.427986 153.154659 
L 112.427986 153.009444 
L 112.456155 153.009444 
L 112.861085 153.009444 
L 112.946766 152.719013 
L 112.985498 152.719013 
L 113.088785 152.428582 
L 113.250757 152.428582 
L 113.250757 152.283366 
L 113.431508 152.283366 
L 113.476109 151.702504 
L 113.552401 151.702504 
L 113.58057 151.412072 
L 113.62165 151.412072 
L 113.969068 151.412072 
L 114.055923 150.83121 
L 114.215547 150.83121 
L 114.262496 150.540779 
L 114.280101 150.540779 
L 114.466721 150.540779 
L 114.466721 150.395563 
L 114.484327 150.395563 
L 114.716722 150.395563 
L 114.716722 150.250348 
L 114.998413 150.250348 
L 115.092309 149.959917 
L 115.197943 149.959917 
L 115.197943 149.814701 
L 115.303577 149.814701 
L 115.386911 149.814701 
L 115.440902 149.52427 
L 115.63339 149.52427 
L 115.639259 149.233839 
L 116.060621 149.233839 
L 116.067663 148.943408 
L 116.31649 148.943408 
L 116.395128 148.652976 
L 116.409213 148.652976 
L 116.865787 148.652976 
L 116.865787 148.507761 
L 116.904519 148.507761 
L 117.230811 148.507761 
L 117.28128 148.072114 
L 117.517196 148.072114 
L 117.545365 147.781683 
L 117.627525 147.781683 
L 117.761328 147.781683 
L 117.761328 147.636467 
L 117.830577 147.636467 
L 118.138089 147.636467 
L 118.138089 147.491252 
L 118.215554 147.491252 
L 118.41978 147.491252 
L 118.477292 147.200821 
L 118.768372 147.200821 
L 118.86579 146.619958 
L 119.02072 146.619958 
L 119.116964 146.184312 
L 119.236683 146.184312 
L 119.237856 146.039096 
L 119.410392 146.039096 
L 119.494899 145.748665 
L 119.820017 145.748665 
L 119.858749 145.313018 
L 119.923303 145.313018 
L 119.95382 145.313018 
L 120.010158 145.022587 
L 120.062975 145.022587 
L 120.474948 145.022587 
L 120.582929 144.441725 
L 121.120489 144.441725 
L 121.120489 144.296509 
L 121.140442 144.296509 
L 121.296545 144.296509 
L 121.358752 144.006078 
L 121.505466 144.006078 
L 121.545372 143.715647 
L 121.564151 143.715647 
L 121.937391 143.715647 
L 121.997251 143.425216 
L 122.064152 143.425216 
L 122.064152 143.28 
L 122.228472 143.28 
L 122.228472 143.134784 
L 122.532463 143.134784 
L 122.532463 142.989569 
L 122.604059 142.989569 
L 122.758989 142.989569 
L 122.804764 142.553922 
L 122.814153 142.553922 
L 122.981994 142.553922 
L 123.064154 142.118275 
L 123.159224 142.118275 
L 123.215562 141.682629 
L 123.325891 141.682629 
L 123.325891 141.537413 
L 123.401009 141.537413 
L 123.658051 141.537413 
L 123.658051 141.392197 
L 123.753122 141.392197 
L 123.892794 141.392197 
L 123.892794 141.246982 
L 123.985517 141.246982 
L 124.082935 141.246982 
L 124.147489 140.956551 
L 124.376363 140.956551 
L 124.376363 140.811335 
L 125.078242 140.811335 
L 125.078242 140.66612 
L 125.215566 140.66612 
L 125.215566 140.520904 
L 125.408054 140.520904 
L 125.413923 140.230473 
L 125.422139 140.230473 
L 125.538336 140.230473 
L 125.538336 140.085257 
L 126.095849 140.085257 
L 126.128713 139.649611 
L 126.343502 139.649611 
L 126.343502 139.504395 
L 126.551249 139.504395 
L 126.649841 139.213964 
L 126.730827 139.213964 
L 126.730827 139.068748 
L 126.758996 139.068748 
L 126.916273 139.068748 
L 126.916273 138.923533 
L 126.997259 138.923533 
L 127.176837 138.923533 
L 127.249607 138.487886 
L 127.282471 138.487886 
L 127.349372 138.487886 
L 127.356415 138.197455 
L 127.393973 138.197455 
L 127.63341 138.197455 
L 127.63341 138.052239 
L 127.686227 138.052239 
L 127.761345 138.052239 
L 127.823551 137.761808 
L 128.107589 137.761808 
L 128.153364 137.471377 
L 128.997262 137.471377 
L 128.997262 137.326161 
L 129.307122 137.326161 
L 129.399845 136.745299 
L 129.472615 136.745299 
L 129.472615 136.600083 
L 129.694447 136.600083 
L 129.694447 136.454868 
L 129.823555 136.454868 
L 129.861114 136.164437 
L 129.905715 136.164437 
L 129.938578 136.164437 
L 129.938578 136.019221 
L 130.166278 136.019221 
L 130.166278 135.874005 
L 130.183884 135.874005 
L 130.298908 135.874005 
L 130.298908 135.72879 
L 130.311819 135.72879 
L 130.511349 135.72879 
L 130.511349 135.583574 
L 130.624026 135.583574 
L 130.624026 135.438359 
L 130.750786 135.438359 
L 130.754308 135.147928 
L 131.151022 135.147928 
L 131.22966 134.857496 
L 131.27074 134.857496 
L 131.338816 134.567065 
L 131.724966 134.567065 
L 131.77661 134.276634 
L 131.821211 134.276634 
L 132.183887 134.276634 
L 132.183887 134.131418 
L 132.221446 134.131418 
L 132.410414 134.131418 
L 132.410414 133.986203 
L 132.520742 133.986203 
L 132.527785 133.986203 
L 132.527785 133.840987 
L 132.697973 133.840987 
L 132.73201 133.550556 
L 132.875203 133.550556 
L 132.875203 133.405341 
L 133.41511 133.405341 
L 133.479664 132.969694 
L 133.543045 132.969694 
L 133.606425 132.679263 
L 133.676848 132.679263 
L 133.709712 132.388832 
L 133.881073 132.388832 
L 133.881073 132.243616 
L 133.977318 132.243616 
L 134.080604 132.243616 
L 134.080604 132.0984 
L 134.165111 132.0984 
L 134.200323 132.0984 
L 134.200323 131.953185 
L 134.250792 131.953185 
L 134.371685 131.953185 
L 134.371685 131.807969 
L 134.582953 131.807969 
L 134.582953 131.662754 
L 135.092343 131.662754 
L 135.11347 131.227107 
L 135.226146 131.227107 
L 135.287179 130.936676 
L 135.403376 130.936676 
L 135.403376 130.79146 
L 135.446804 130.79146 
L 135.551264 130.79146 
L 135.551264 130.646245 
L 135.742579 130.646245 
L 135.798917 130.355813 
L 135.916288 130.355813 
L 135.916288 130.210598 
L 136.208542 130.210598 
L 136.228495 129.920167 
L 136.60643 129.920167 
L 136.703848 129.629736 
L 137.307135 129.629736 
L 137.307135 129.48452 
L 137.320046 129.48452 
L 137.455023 129.48452 
L 137.455023 129.339304 
L 137.971456 129.339304 
L 137.971456 129.194089 
L 138.074742 129.194089 
L 138.374039 129.194089 
L 138.467936 128.613226 
L 138.924509 128.613226 
L 138.925683 128.468011 
L 139.246106 128.468011 
L 139.246106 128.322795 
L 139.313007 128.322795 
L 139.410425 128.322795 
L 139.410425 128.17758 
L 139.486717 128.17758 
L 139.659252 128.17758 
L 139.678031 127.887149 
L 139.805966 127.887149 
L 139.881083 127.596717 
L 140.010192 127.596717 
L 140.010192 127.451502 
L 140.051272 127.451502 
L 140.352915 127.451502 
L 140.460897 127.161071 
L 140.53484 127.161071 
L 140.53484 127.015855 
L 140.80362 127.015855 
L 140.80362 126.87064 
L 140.890475 126.87064 
L 141.250804 126.87064 
L 141.343527 126.580208 
L 141.516063 126.580208 
L 141.516063 126.434993 
L 141.734373 126.434993 
L 141.734373 126.289777 
L 141.805969 126.289777 
L 142.33766 126.289777 
L 142.405736 125.999346 
L 142.447989 125.999346 
L 142.496111 125.999346 
L 142.563013 125.563699 
L 142.730854 125.563699 
L 142.730854 125.418484 
L 142.967943 125.418484 
L 143.016065 124.982837 
L 143.047755 124.982837 
L 144.344706 124.982837 
L 144.431561 124.692406 
L 144.658087 124.692406 
L 144.658087 124.54719 
L 144.737899 124.54719 
L 144.786021 124.54719 
L 144.786021 124.401975 
L 144.924519 124.401975 
L 144.947993 124.111544 
L 145.316539 124.111544 
L 145.409262 123.821112 
L 145.442126 123.821112 
L 145.541891 123.530681 
L 145.75668 123.530681 
L 145.800108 123.24025 
L 145.979685 123.24025 
L 145.979685 123.095034 
L 146.207385 123.095034 
L 146.207385 122.949819 
L 146.394005 122.949819 
L 146.394005 122.804603 
L 146.733208 122.804603 
L 146.733208 122.659388 
L 146.766072 122.659388 
L 146.849405 122.659388 
L 146.849405 122.514172 
L 146.868184 122.514172 
L 147.181565 122.514172 
L 147.181565 122.368957 
L 147.203866 122.368957 
L 147.308326 122.368957 
L 147.367012 122.078525 
L 147.56889 122.078525 
L 147.56889 121.93331 
L 147.667482 121.93331 
L 147.768421 121.93331 
L 147.768421 121.788094 
L 147.825933 121.788094 
L 147.992599 121.788094 
L 147.992599 121.642879 
L 148.648704 121.642879 
L 148.648704 121.497663 
L 148.909268 121.497663 
L 148.909268 121.352448 
L 148.986733 121.352448 
L 149.161616 121.352448 
L 149.212085 121.062016 
L 149.264902 121.062016 
L 149.402226 121.062016 
L 149.443306 120.771585 
L 149.53955 120.771585 
L 149.53955 120.62637 
L 149.617015 120.62637 
L 149.729692 120.62637 
L 149.729692 120.481154 
L 149.747297 120.481154 
L 149.89988 120.481154 
L 149.950349 120.045507 
L 150.136969 120.045507 
L 150.136969 119.900292 
L 150.151054 119.900292 
L 150.352932 119.900292 
L 150.436266 119.609861 
L 150.548942 119.609861 
L 150.548942 119.464645 
L 150.563026 119.464645 
L 150.848238 119.464645 
L 150.848238 119.319429 
L 150.892839 119.319429 
L 151.263732 119.319429 
L 151.325938 119.028998 
L 151.626408 119.028998 
L 151.651056 118.738567 
L 151.891667 118.738567 
L 151.891667 118.593351 
L 152.095893 118.593351 
L 152.095893 118.448136 
L 152.183921 118.448136 
L 152.336504 118.448136 
L 152.336504 118.30292 
L 153.230871 118.30292 
L 153.274299 118.012489 
L 153.475003 118.012489 
L 153.566553 117.722058 
L 154.034863 117.722058 
L 154.034863 117.576842 
L 154.133455 117.576842 
L 154.156929 117.576842 
L 154.156929 117.431627 
L 154.189793 117.431627 
L 154.332986 117.431627 
L 154.415145 117.141196 
L 154.693315 117.141196 
L 154.719137 116.850765 
L 154.823597 116.850765 
L 154.851766 116.560333 
L 155.067729 116.560333 
L 155.124067 116.269902 
L 155.128762 116.269902 
L 155.311861 116.269902 
L 155.311861 116.124687 
L 155.69449 116.124687 
L 155.69449 115.979471 
L 155.804819 115.979471 
L 156.000829 115.979471 
L 156.109984 115.543824 
L 156.209749 115.543824 
L 156.209749 115.398609 
L 156.270782 115.398609 
L 156.679234 115.398609 
L 156.679234 115.253393 
L 156.787215 115.253393 
L 156.940971 115.253393 
L 156.940971 115.108178 
L 157.136981 115.108178 
L 157.136981 114.962962 
L 157.415151 114.962962 
L 157.415151 114.817746 
L 157.550127 114.817746 
L 157.550127 114.672531 
L 157.728531 114.672531 
L 157.728531 114.527315 
L 157.788391 114.527315 
L 158.00318 114.527315 
L 158.00318 114.3821 
L 158.874073 114.3821 
L 158.95858 113.801237 
L 159.019613 113.801237 
L 159.044261 113.510806 
L 159.101773 113.510806 
L 159.176891 113.510806 
L 159.176891 113.365591 
L 159.484403 113.365591 
L 159.55952 113.075159 
L 159.580647 113.075159 
L 159.688629 113.075159 
L 159.759051 112.639513 
L 160.056 112.639513 
L 160.056 112.494297 
L 160.659287 112.494297 
L 160.659287 112.349082 
L 160.737926 112.349082 
L 160.921025 112.349082 
L 160.921025 112.203866 
L 160.958584 112.203866 
L 161.037222 112.203866 
L 161.085345 111.623004 
L 161.091213 111.623004 
L 161.256706 111.623004 
L 161.36234 110.896926 
L 161.396378 110.896926 
L 161.396378 110.75171 
L 162.807178 110.75171 
L 162.807178 110.606495 
L 162.869385 110.606495 
L 163.518447 110.606495 
L 163.599433 110.316063 
L 163.609997 110.316063 
L 163.950373 110.316063 
L 164.046617 110.025632 
L 164.067744 110.025632 
L 164.067744 109.880417 
L 164.337697 109.880417 
L 164.337697 109.735201 
L 164.455068 109.735201 
L 164.559529 109.44477 
L 164.972675 109.44477 
L 164.980891 109.154339 
L 165.048966 109.154339 
L 165.886996 109.154339 
L 165.969156 108.718692 
L 166.107653 108.718692 
L 166.107653 108.573477 
L 166.229719 108.573477 
L 166.291926 108.283045 
L 167.959769 108.283045 
L 167.959769 108.13783 
L 168.626437 108.13783 
L 168.721508 107.556967 
L 168.81071 107.556967 
L 168.81071 107.411752 
L 168.91517 107.411752 
L 169.480899 107.411752 
L 169.530194 107.121321 
L 170.060712 107.121321 
L 170.128787 106.83089 
L 170.259069 106.83089 
L 170.259069 106.685674 
L 170.477379 106.685674 
L 170.534891 106.395243 
L 171.044281 106.395243 
L 171.044281 106.250027 
L 171.414 106.250027 
L 171.513766 105.959596 
L 171.532545 105.959596 
L 171.615879 105.669165 
L 171.639353 105.669165 
L 171.729729 105.669165 
L 171.729729 105.523949 
L 172.047804 105.523949 
L 172.061889 105.233518 
L 172.514941 105.233518 
L 172.62527 104.943087 
L 173.916352 104.943087 
L 173.955084 104.652656 
L 174.024333 104.652656 
L 174.034897 104.652656 
L 174.034897 104.50744 
L 174.038418 104.50744 
L 174.156963 104.50744 
L 174.239123 104.217009 
L 174.408137 104.217009 
L 174.490297 103.781362 
L 174.638184 103.781362 
L 174.638184 103.636147 
L 174.939828 103.636147 
L 175.020814 103.345716 
L 175.476214 103.345716 
L 175.476214 103.2005 
L 175.519641 103.2005 
L 175.668702 103.2005 
L 175.777858 102.910069 
L 175.797811 102.910069 
L 175.797811 102.764853 
L 175.902271 102.764853 
L 176.972695 102.764853 
L 176.972695 102.619638 
L 177.079503 102.619638 
L 177.279034 102.619638 
L 177.279034 102.474422 
L 177.412837 102.474422 
L 177.412837 102.329207 
L 177.521992 102.329207 
L 177.713307 102.329207 
L 177.713307 102.183991 
L 177.782556 102.183991 
L 177.980913 102.183991 
L 177.980913 102.038775 
L 178.289599 102.038775 
L 178.289599 101.89356 
L 178.306031 101.89356 
L 178.588895 101.89356 
L 178.588895 101.748344 
L 178.61589 101.748344 
L 179.00791 101.748344 
L 179.09007 101.457913 
L 179.22622 101.457913 
L 179.320117 101.167482 
L 179.495 101.167482 
L 179.495 101.022266 
L 179.581855 101.022266 
L 179.983264 101.022266 
L 180.012606 100.731835 
L 180.053686 100.731835 
L 180.537255 100.731835 
L 180.537255 100.58662 
L 180.606504 100.58662 
L 180.811904 100.58662 
L 180.811904 100.441404 
L 180.919885 100.441404 
L 181.26613 100.441404 
L 181.26613 100.296188 
L 181.318947 100.296188 
L 181.489135 100.296188 
L 181.595942 100.005757 
L 181.968009 100.005757 
L 182.01261 99.715326 
L 182.147587 99.715326 
L 182.147587 99.570111 
L 182.241483 99.570111 
L 182.536085 99.570111 
L 182.536085 99.424895 
L 182.633503 99.424895 
L 182.806038 99.424895 
L 182.912846 99.134464 
L 182.916367 99.134464 
L 182.943363 99.134464 
L 183.053691 98.844033 
L 183.078339 98.844033 
L 183.078339 98.698817 
L 183.162846 98.698817 
L 183.604162 98.698817 
L 183.604162 98.553602 
L 183.735617 98.553602 
L 183.735617 98.408386 
L 183.784913 98.408386 
L 183.999702 98.408386 
L 184.090078 98.117955 
L 184.414022 98.117955 
L 184.414022 97.972739 
L 184.607685 97.972739 
L 184.607685 97.827524 
L 184.672239 97.827524 
L 184.914023 97.827524 
L 184.914023 97.682308 
L 185.517311 97.682308 
L 185.517311 97.537092 
L 185.60886 97.537092 
L 185.667546 97.537092 
L 185.667546 97.391877 
L 185.834212 97.391877 
L 185.834212 97.246661 
L 186.11825 97.246661 
L 186.11825 97.101446 
L 186.213321 97.101446 
L 186.597125 97.101446 
L 186.654636 96.811015 
L 186.863557 96.811015 
L 186.909332 96.520583 
L 186.941022 96.520583 
L 187.495013 96.520583 
L 187.495013 96.375368 
L 187.595953 96.375368 
L 187.667549 96.375368 
L 187.667549 96.230152 
L 187.727408 96.230152 
L 187.957455 96.230152 
L 187.957455 96.084937 
L 188.181634 96.084937 
L 188.289616 95.794506 
L 188.549006 95.794506 
L 188.549006 95.64929 
L 188.62295 95.64929 
L 188.735626 95.64929 
L 188.735626 95.504074 
L 188.760274 95.504074 
L 189.031401 95.504074 
L 189.126472 95.213643 
L 189.559571 95.213643 
L 189.641731 94.923212 
L 189.749712 94.923212 
L 189.854172 94.34235 
L 189.914032 94.34235 
L 189.914032 94.197134 
L 190.741498 94.197134 
L 190.848305 94.051919 
L 191.119433 94.051919 
L 191.119433 93.906703 
L 191.146428 93.906703 
L 191.347133 93.906703 
L 191.347133 93.761487 
L 191.415208 93.761487 
L 191.818964 93.761487 
L 191.818964 93.616272 
L 192.220373 93.616272 
L 192.290796 93.325841 
L 192.527886 93.325841 
L 192.608872 93.03541 
L 192.693379 93.03541 
L 192.693379 92.890194 
L 192.761454 92.890194 
L 192.845961 92.890194 
L 192.918731 92.599763 
L 193.064272 92.599763 
L 193.108873 92.309332 
L 193.171079 92.309332 
L 193.635869 92.309332 
L 193.645258 92.0189 
L 193.950423 92.0189 
L 194.038452 91.583254 
L 194.538452 91.583254 
L 194.538452 91.438038 
L 194.816622 91.438038 
L 194.816622 91.292823 
L 195.252069 91.292823 
L 195.338923 91.002391 
L 195.419909 91.002391 
L 195.419909 90.857176 
L 195.435168 90.857176 
L 196.02437 90.857176 
L 196.02437 90.71196 
L 196.095967 90.71196 
L 196.6347 90.71196 
L 196.6347 90.566745 
L 196.672259 90.566745 
L 196.874137 90.566745 
L 196.881179 90.276314 
L 196.950428 90.276314 
L 197.60888 90.276314 
L 197.60888 90.131098 
L 197.674608 90.131098 
L 197.919914 90.131098 
L 197.919914 89.985882 
L 198.235642 89.985882 
L 198.32367 89.550236 
L 198.40583 89.550236 
L 198.40583 89.40502 
L 198.424609 89.40502 
L 198.877662 89.40502 
L 198.877662 89.259804 
L 198.942216 89.259804 
L 199.011465 89.259804 
L 199.011465 89.114589 
L 199.191042 89.114589 
L 199.191042 88.969373 
L 199.300198 88.969373 
L 199.460996 88.969373 
L 199.460996 88.824158 
L 199.869447 88.824158 
L 199.869447 88.678942 
L 199.941044 88.678942 
L 200.314284 88.678942 
L 200.416397 88.388511 
L 200.959825 88.388511 
L 200.990341 87.952864 
L 201.216867 87.952864 
L 201.216867 87.807649 
L 201.326023 87.807649 
L 201.364755 87.807649 
L 201.364755 87.662433 
L 201.458652 87.662433 
L 201.491516 87.662433 
L 201.491516 87.517218 
L 201.553722 87.517218 
L 201.617103 87.517218 
L 201.654662 87.226786 
L 201.730953 87.226786 
L 201.730953 87.081571 
L 202.371799 87.081571 
L 202.371799 86.936355 
L 202.800203 86.936355 
L 202.800203 86.79114 
L 203.154664 86.79114 
L 203.154664 86.645924 
L 203.323679 86.645924 
L 203.425791 86.210277 
L 204.530253 86.210277 
L 204.625324 85.629415 
L 204.678141 85.629415 
L 204.76969 85.338984 
L 204.835418 85.338984 
L 204.835418 85.193768 
L 205.110066 85.193768 
L 205.110066 85.048553 
L 205.166405 85.048553 
L 205.4211 85.048553 
L 205.422274 84.758121 
L 205.570161 84.758121 
L 205.570161 84.612906 
L 205.604199 84.612906 
L 206.054904 84.612906 
L 206.054904 84.46769 
L 206.149974 84.46769 
L 207.21453 84.46769 
L 207.21453 84.322475 
L 207.267347 84.322475 
L 207.740353 84.322475 
L 207.813123 84.032044 
L 208.194579 84.032044 
L 208.194579 83.886828 
L 208.598335 83.886828 
L 208.598335 83.741612 
L 208.971575 83.741612 
L 208.971575 83.596397 
L 209.56782 83.596397 
L 209.56782 83.451181 
L 209.890591 83.451181 
L 209.966882 83.16075 
L 210.310779 83.16075 
L 210.310779 83.015535 
L 210.490357 83.015535 
L 210.491531 82.870319 
L 210.680498 82.870319 
L 210.718057 82.434672 
L 210.784959 82.434672 
L 210.84247 82.434672 
L 210.84247 82.289457 
L 210.957494 82.289457 
L 210.957494 82.144241 
L 211.024396 82.144241 
L 211.498575 82.144241 
L 211.498575 81.999025 
L 211.579561 81.999025 
L 211.830735 81.999025 
L 211.830735 81.85381 
L 212.828389 81.85381 
L 212.828389 81.708594 
L 212.916418 81.708594 
L 212.965714 81.708594 
L 212.965714 81.563379 
L 213.054916 81.563379 
L 213.176981 81.563379 
L 213.176981 81.418163 
L 213.380033 81.418163 
L 213.414071 80.982516 
L 214.350692 80.982516 
L 214.350692 80.837301 
L 214.42581 80.837301 
L 215.157032 80.837301 
L 215.157032 80.692085 
L 215.452807 80.692085 
L 215.452807 80.54687 
L 215.529098 80.54687 
L 215.662901 80.54687 
L 215.750929 80.256439 
L 215.847174 80.256439 
L 215.847174 80.111223 
L 216.227456 80.111223 
L 216.227456 79.966007 
L 216.673466 79.966007 
L 216.673466 79.820792 
L 216.767363 79.820792 
L 216.841307 79.820792 
L 216.848349 79.530361 
L 216.877692 79.530361 
L 217.097176 79.530361 
L 217.104218 79.239929 
L 217.201636 79.239929 
L 217.227458 79.239929 
L 217.227458 79.094714 
L 218.346004 79.094714 
L 218.346004 78.949498 
L 218.419948 78.949498 
L 218.703986 78.949498 
L 218.703986 78.804283 
L 218.813141 78.804283 
L 219.414081 78.804283 
L 219.414081 78.659067 
L 219.485678 78.659067 
L 219.868307 78.659067 
L 219.868307 78.513852 
L 219.924645 78.513852 
L 220.086618 78.513852 
L 220.128871 78.22342 
L 220.700468 78.22342 
L 220.700468 78.078205 
L 220.807276 78.078205 
L 221.365962 78.078205 
L 221.365962 77.932989 
L 221.45047 77.932989 
L 221.63709 77.932989 
L 221.63709 77.787774 
L 221.676996 77.787774 
L 222.15587 77.787774 
L 222.15587 77.642558 
L 222.439908 77.642558 
L 222.540847 77.352127 
L 222.755636 77.352127 
L 222.755636 77.206911 
L 222.814322 77.206911 
L 222.982162 77.206911 
L 222.982162 77.061696 
L 223.092491 77.061696 
L 223.300238 77.061696 
L 223.300238 76.91648 
L 223.423478 76.91648 
L 223.423478 76.771265 
L 223.476295 76.771265 
L 223.581929 76.771265 
L 223.581929 76.626049 
L 223.682868 76.626049 
L 224.195779 76.626049 
L 224.293197 76.335618 
L 224.295545 76.335618 
L 224.797893 76.335618 
L 224.797893 76.190402 
L 225.293199 76.190402 
L 225.293199 76.045187 
L 225.387096 76.045187 
L 225.808458 76.045187 
L 225.905876 75.754756 
L 226.623013 75.754756 
L 226.623013 75.60954 
L 226.766206 75.60954 
L 226.80846 75.319109 
L 227.900011 75.319109 
L 227.900011 75.173893 
L 227.923485 75.173893 
L 228.542031 75.173893 
L 228.542031 75.028678 
L 228.765036 75.028678 
L 228.765036 74.883462 
L 228.874191 74.883462 
L 228.882407 74.883462 
L 228.882407 74.738247 
L 229.178182 74.738247 
L 229.178182 74.593031 
L 229.324896 74.593031 
L 229.400013 74.3026 
L 229.68053 74.3026 
L 229.68053 74.157384 
L 229.782643 74.157384 
L 230.032644 74.157384 
L 230.032644 74.012169 
L 230.141799 74.012169 
L 231.781473 74.012169 
L 231.781473 73.866953 
L 231.83429 73.866953 
L 232.222788 73.866953 
L 232.276779 73.576522 
L 232.299079 73.576522 
L 232.557296 73.576522 
L 232.557296 73.431306 
L 232.646498 73.431306 
L 233.328424 73.431306 
L 233.328424 73.286091 
L 233.438753 73.286091 
L 234.736877 73.286091 
L 234.736877 73.140875 
L 234.752135 73.140875 
L 234.873027 73.140875 
L 234.965751 72.850444 
L 235.06669 72.850444 
L 235.06669 72.705228 
L 235.790869 72.705228 
L 235.790869 72.560013 
L 235.900024 72.560013 
L 236.567866 72.560013 
L 236.567866 72.414797 
L 237.006834 72.414797 
L 237.006834 72.269582 
L 237.090167 72.269582 
L 237.380074 72.269582 
L 237.380074 72.124366 
L 237.437586 72.124366 
L 237.921155 72.124366 
L 237.921155 71.979151 
L 238.191108 71.979151 
L 238.191108 71.833935 
L 238.299089 71.833935 
L 240.012707 71.833935 
L 240.117168 71.398288 
L 240.540877 71.398288 
L 240.540877 71.253073 
L 240.57022 71.253073 
L 240.95285 71.253073 
L 240.95285 71.107857 
L 240.965761 71.107857 
L 241.17116 71.107857 
L 241.17116 70.962641 
L 241.569048 70.962641 
L 241.578438 70.67221 
L 241.634776 70.67221 
L 241.867171 70.67221 
L 241.867171 70.526995 
L 242.147687 70.526995 
L 242.147687 70.381779 
L 242.51858 70.381779 
L 242.51858 70.236564 
L 242.619519 70.236564 
L 243.31553 70.236564 
L 243.391821 69.946132 
L 243.699333 69.946132 
L 243.699333 69.800917 
L 245.235721 69.800917 
L 245.340181 69.510486 
L 245.728679 69.510486 
L 245.728679 69.36527 
L 245.800276 69.36527 
L 246.726334 69.36527 
L 246.726334 69.220054 
L 247.01624 69.220054 
L 247.01624 69.074839 
L 247.231029 69.074839 
L 247.231029 68.929623 
L 247.259198 68.929623 
L 247.40826 68.929623 
L 247.40826 68.784408 
L 247.506851 68.784408 
L 247.63596 68.784408 
L 247.739246 68.493977 
L 247.972815 68.493977 
L 247.972815 68.348761 
L 247.985725 68.348761 
L 248.86014 68.348761 
L 248.86014 68.203545 
L 248.954037 68.203545 
L 249.594883 68.203545 
L 249.594883 68.05833 
L 249.68878 68.05833 
L 249.912959 68.05833 
L 249.923522 67.767899 
L 250.855449 67.767899 
L 250.855449 67.622683 
L 251.071411 67.622683 
L 251.091365 67.332252 
L 251.162961 67.332252 
L 251.463431 67.332252 
L 251.463431 67.187036 
L 251.861319 67.187036 
L 251.861319 67.041821 
L 251.964605 67.041821 
L 252.170005 67.041821 
L 252.170005 66.896605 
L 252.220474 66.896605 
L 252.30146 66.896605 
L 252.30146 66.75139 
L 252.407094 66.75139 
L 253.238082 66.75139 
L 253.238082 66.606174 
L 253.346063 66.606174 
L 253.41766 66.606174 
L 253.519772 66.315743 
L 253.543247 66.315743 
L 253.543247 66.170527 
L 253.593716 66.170527 
L 253.80381 66.170527 
L 253.843717 65.880096 
L 253.871886 65.880096 
L 254.16414 65.880096 
L 254.165313 65.734881 
L 254.279163 65.734881 
L 254.279163 65.589665 
L 254.349586 65.589665 
L 255.060855 65.589665 
L 255.060855 65.444449 
L 255.55264 65.444449 
L 255.55264 65.299234 
L 255.662968 65.299234 
L 255.941138 65.299234 
L 255.976349 65.008803 
L 256.246303 65.008803 
L 256.246303 64.863587 
L 256.543252 64.863587 
L 256.543252 64.718372 
L 257.310859 64.718372 
L 257.313206 64.42794 
L 257.479873 64.42794 
L 257.479873 64.282725 
L 258.596072 64.282725 
L 258.673537 63.847078 
L 258.677058 63.847078 
L 259.539736 63.847078 
L 259.539736 63.701862 
L 259.63598 63.701862 
L 260.783869 63.701862 
L 260.862508 63.411431 
L 261.094902 63.411431 
L 261.103118 63.121 
L 261.125419 63.121 
L 261.648894 63.121 
L 261.648894 62.975785 
L 261.758049 62.975785 
L 262.148895 62.975785 
L 262.186454 62.685353 
L 262.25805 62.685353 
L 262.306172 62.685353 
L 262.306172 62.540138 
L 262.634811 62.540138 
L 262.634811 62.394922 
L 262.842558 62.394922 
L 262.937629 62.104491 
L 262.952887 62.104491 
L 265.165332 62.104491 
L 265.165332 61.959276 
L 266.062047 61.959276 
L 266.062047 61.81406 
L 266.206413 61.81406 
L 266.206413 61.668844 
L 266.436461 61.668844 
L 266.436461 61.523629 
L 266.517447 61.523629 
L 266.593738 61.523629 
L 266.593738 61.378413 
L 266.679419 61.378413 
L 267.243974 61.378413 
L 267.262753 61.087982 
L 267.354303 61.087982 
L 268.324962 61.087982 
L 268.324962 60.942766 
L 269.05501 60.942766 
L 269.139517 60.652335 
L 269.186465 60.652335 
L 269.186465 60.50712 
L 270.097265 60.50712 
L 270.120739 60.216689 
L 270.172383 60.216689 
L 270.357829 60.216689 
L 270.357829 60.071473 
L 271.529192 60.071473 
L 271.529192 59.926257 
L 271.571446 59.926257 
L 274.468164 59.926257 
L 274.468164 59.781042 
L 274.553845 59.781042 
L 275.449387 59.781042 
L 275.485772 59.490611 
L 275.603143 59.490611 
L 275.603143 59.345395 
L 276.677088 59.345395 
L 276.677088 59.20018 
L 277.123098 59.20018 
L 277.227559 58.909748 
L 277.317934 58.909748 
L 277.317934 58.764533 
L 277.343756 58.764533 
L 278.374274 58.764533 
L 278.374274 58.619317 
L 278.410659 58.619317 
L 278.722866 58.619317 
L 278.722866 58.474102 
L 279.236952 58.474102 
L 279.236952 58.328886 
L 279.60315 58.328886 
L 279.60315 58.18367 
L 280.273339 58.18367 
L 280.274512 58.038455 
L 280.633668 58.038455 
L 280.633668 57.893239 
L 280.743997 57.893239 
L 280.748691 57.893239 
L 280.748691 57.748024 
L 280.947049 57.748024 
L 280.947049 57.602808 
L 281.113716 57.602808 
L 281.113716 57.457593 
L 281.205265 57.457593 
L 281.45996 57.457593 
L 281.45996 57.312377 
L 281.56442 57.312377 
L 281.572636 57.312377 
L 281.667707 57.021946 
L 281.969351 57.021946 
L 281.969351 56.87673 
L 282.050337 56.87673 
L 282.224046 56.87673 
L 282.224046 56.731515 
L 282.307379 56.731515 
L 282.416535 56.731515 
L 282.416535 56.586299 
L 282.526863 56.586299 
L 283.282733 56.586299 
L 283.282733 56.441084 
L 283.574987 56.441084 
L 283.574987 56.295868 
L 283.699401 56.295868 
L 283.699401 56.150652 
L 284.707618 56.150652 
L 284.707618 56.005437 
L 284.874285 56.005437 
L 284.874285 55.860221 
L 284.976398 55.860221 
L 285.073816 55.860221 
L 285.073816 55.715006 
L 285.328511 55.715006 
L 285.328511 55.56979 
L 285.428277 55.56979 
L 285.835554 55.56979 
L 285.942362 55.279359 
L 285.974052 55.279359 
L 285.974052 55.134143 
L 286.663021 55.134143 
L 286.771002 54.843712 
L 286.871941 54.843712 
L 286.871941 54.698497 
L 287.643069 54.698497 
L 287.679454 54.408065 
L 289.359035 54.408065 
L 289.382509 54.117634 
L 289.463495 54.117634 
L 289.650115 54.117634 
L 289.650115 53.972419 
L 289.976406 53.972419 
L 289.976406 53.827203 
L 290.019834 53.827203 
L 290.254576 53.827203 
L 290.254576 53.681987 
L 290.289787 53.681987 
L 290.767488 53.681987 
L 290.767488 53.536772 
L 291.278052 53.536772 
L 291.278052 53.391556 
L 291.388381 53.391556 
L 291.431808 53.391556 
L 291.431808 53.246341 
L 291.455282 53.246341 
L 292.01749 53.246341 
L 292.01749 53.101125 
L 292.091434 53.101125 
L 292.386035 53.101125 
L 292.386035 52.95591 
L 292.451763 52.95591 
L 292.878994 52.95591 
L 292.895425 52.665478 
L 293.001059 52.665478 
L 293.001059 52.520263 
L 294.326179 52.520263 
L 294.326179 52.375047 
L 295.039795 52.375047 
L 295.039795 52.229832 
L 295.123129 52.229832 
L 296.590267 52.229832 
L 296.590267 52.084616 
L 296.643084 52.084616 
L 296.957639 52.084616 
L 296.957639 51.939401 
L 297.048015 51.939401 
L 297.283931 51.939401 
L 297.283931 51.794185 
L 297.316794 51.794185 
L 297.505762 51.794185 
L 297.505762 51.648969 
L 297.614917 51.648969 
L 298.403651 51.648969 
L 298.403651 51.503754 
L 298.51398 51.503754 
L 299.461164 51.503754 
L 299.461164 51.358538 
L 299.503418 51.358538 
L 299.916564 51.358538 
L 299.969381 51.068107 
L 299.979944 51.068107 
L 300.982294 51.068107 
L 300.982294 50.922891 
L 301.0222 50.922891 
L 301.235815 50.922891 
L 301.235815 50.777676 
L 302.799198 50.777676 
L 302.799198 50.63246 
L 302.805067 50.63246 
L 303.606711 50.63246 
L 303.606711 50.487245 
L 304.409529 50.487245 
L 304.424788 50.196814 
L 304.76399 50.196814 
L 304.76399 50.051598 
L 304.843802 50.051598 
L 305.004601 50.051598 
L 305.004601 49.906382 
L 305.923616 49.906382 
L 305.923616 49.761167 
L 306.00695 49.761167 
L 306.131363 49.761167 
L 306.131363 49.615951 
L 306.683007 49.615951 
L 306.683007 49.470736 
L 306.769862 49.470736 
L 306.914228 49.470736 
L 306.914228 49.32552 
L 308.542165 49.32552 
L 308.542165 49.180305 
L 308.592635 49.180305 
L 309.90367 49.180305 
L 309.90367 49.035089 
L 309.972919 49.035089 
L 310.83677 49.035089 
L 310.83677 48.889873 
L 311.153672 48.889873 
L 311.153672 48.744658 
L 311.188883 48.744658 
L 311.352029 48.744658 
L 311.352029 48.599442 
L 312.014002 48.599442 
L 312.014002 48.454227 
L 313.134896 48.454227 
L 313.134896 48.309011 
L 313.192408 48.309011 
L 314.651331 48.309011 
L 314.651331 48.163795 
L 314.663068 48.163795 
L 314.837951 48.163795 
L 314.837951 48.01858 
L 315.88138 48.01858 
L 315.88138 47.873364 
L 315.962366 47.873364 
L 316.025746 47.873364 
L 316.130206 47.437718 
L 316.843823 47.437718 
L 316.843823 47.292502 
L 317.002274 47.292502 
L 317.072696 47.002071 
L 317.233495 47.002071 
L 317.233495 46.856855 
L 317.807439 46.856855 
L 317.86143 46.566424 
L 318.58561 46.566424 
L 318.663074 46.421209 
L 319.854391 46.421209 
L 319.854391 46.275993 
L 321.447117 46.275993 
L 321.544535 45.840346 
L 321.989371 45.840346 
L 321.989371 45.695131 
L 322.427165 45.695131 
L 322.427165 45.549915 
L 322.461203 45.549915 
L 324.841489 45.549915 
L 324.872005 45.114268 
L 324.948296 45.114268 
L 326.180693 45.114268 
L 326.180693 44.969053 
L 326.193604 44.969053 
L 327.060976 44.969053 
L 327.156047 44.678622 
L 327.619662 44.678622 
L 327.619662 44.533406 
L 327.870836 44.533406 
L 327.870836 44.38819 
L 330.408399 44.38819 
L 330.437742 44.097759 
L 333.298076 44.097759 
L 333.298076 43.952544 
L 333.822724 43.952544 
L 333.822724 43.807328 
L 335.300426 43.807328 
L 335.300426 43.662113 
L 335.335638 43.662113 
L 336.977659 43.662113 
L 336.977659 43.516897 
L 337.030476 43.516897 
L 337.783999 43.516897 
L 337.783999 43.371681 
L 337.887285 43.371681 
L 337.900196 43.371681 
L 337.900196 43.226466 
L 338.552779 43.226466 
L 338.552779 43.08125 
L 338.558648 43.08125 
L 339.424846 43.08125 
L 339.424846 42.936035 
L 340.089167 42.936035 
L 340.089167 42.790819 
L 340.1502 42.790819 
L 340.856774 42.790819 
L 340.856774 42.645603 
L 341.441282 42.645603 
L 341.44715 42.355172 
L 341.541047 42.355172 
L 343.084477 42.355172 
L 343.084477 42.209957 
L 343.125557 42.209957 
L 343.640816 42.209957 
L 343.640816 42.064741 
L 344.828611 42.064741 
L 344.828611 41.919526 
L 348.120871 41.919526 
L 348.213594 41.629094 
L 348.613829 41.629094 
L 348.629087 41.338663 
L 348.65843 41.338663 
L 349.427211 41.338663 
L 349.427211 41.193448 
L 349.509371 41.193448 
L 349.897869 41.193448 
L 349.897869 41.048232 
L 349.909606 41.048232 
L 351.066885 41.048232 
L 351.066885 40.903017 
L 351.131439 40.903017 
L 353.021114 40.903017 
L 353.021114 40.757801 
L 353.586842 40.757801 
L 353.588016 40.612585 
L 353.926045 40.612585 
L 353.926045 40.46737 
L 354.021115 40.46737 
L 354.414308 40.46737 
L 354.414308 40.322154 
L 354.474168 40.322154 
L 355.498817 40.322154 
L 355.498817 40.176939 
L 359.178401 40.176939 
L 359.178401 40.031723 
L 361.936621 40.031723 
L 361.936621 39.886507 
L 364.376766 39.886507 
L 364.376766 39.741292 
L 364.386156 39.741292 
L 365.846252 39.741292 
L 365.846252 39.596076 
L 365.868553 39.596076 
L 366.527005 39.596076 
L 366.527005 39.450861 
L 366.84508 39.450861 
L 366.896724 39.16043 
L 367.495316 39.16043 
L 367.495316 39.015214 
L 368.004707 39.015214 
L 368.004707 38.869998 
L 368.186632 38.869998 
L 368.186632 38.724783 
L 368.353299 38.724783 
L 368.353299 38.579567 
L 371.956591 38.579567 
L 371.956591 38.434352 
L 372.322789 38.434352 
L 372.395559 37.998705 
L 373.016452 37.998705 
L 373.016452 37.853489 
L 375.065752 37.853489 
L 375.102137 37.563058 
L 377.001201 37.563058 
L 377.001201 37.417843 
L 380.112708 37.417843 
L 380.112708 37.272627 
L 380.401441 37.272627 
L 380.401441 37.127411 
L 381.160832 37.127411 
L 381.160832 36.982196 
L 382.632666 36.982196 
L 382.632666 36.83698 
L 383.316939 36.83698 
L 383.316939 36.691765 
L 385.517647 36.691765 
L 385.517647 36.691765 
" style="fill:none;stroke:#0000ff;stroke-linecap:square;stroke-opacity:0.8;stroke-width:1.5;"/>
   </g>
   <g id="patch_3">
    <path d="M 54 252 
L 54 34.56 
" style="fill:none;stroke:#000000;stroke-linecap:square;stroke-linejoin:miter;stroke-width:0.8;"/>
   </g>
   <g id="patch_4">
    <path d="M 388.8 252 
L 388.8 34.56 
" style="fill:none;stroke:#000000;stroke-linecap:square;stroke-linejoin:miter;stroke-width:0.8;"/>
   </g>
   <g id="patch_5">
    <path d="M 54 252 
L 388.8 252 
" style="fill:none;stroke:#000000;stroke-linecap:square;stroke-linejoin:miter;stroke-width:0.8;"/>
   </g>
   <g id="patch_6">
    <path d="M 54 34.56 
L 388.8 34.56 
" style="fill:none;stroke:#000000;stroke-linecap:square;stroke-linejoin:miter;stroke-width:0.8;"/>
   </g>
   <g id="legend_1">
    <g id="patch_7">
     <path d="M 226.660937 247 
L 381.8 247 
Q 383.8 247 383.8 245 
L 383.8 231.321875 
Q 383.8 229.321875 381.8 229.321875 
L 226.660937 229.321875 
Q 224.660937 229.321875 224.660937 231.321875 
L 224.660937 245 
Q 224.660937 247 226.660937 247 
z
" style="fill:#ffffff;opacity:0.8;stroke:#cccccc;stroke-linejoin:miter;"/>
    </g>
    <g id="line2d_12">
     <path d="M 228.660937 237.420312 
L 248.660937 237.420312 
" style="fill:none;stroke:#0000ff;stroke-linecap:square;stroke-opacity:0.8;stroke-width:1.5;"/>
    </g>
    <g id="line2d_13"/>
    <g id="text_13">
     <!-- IDEARS PD (AUC = 0.72) -->
     <g transform="translate(256.660937 240.920312)scale(0.1 -0.1)">
      <defs>
       <path d="M 9.8125 72.90625 
L 19.671875 72.90625 
L 19.671875 0 
L 9.8125 0 
z
" id="DejaVuSans-73"/>
       <path d="M 19.671875 64.796875 
L 19.671875 8.109375 
L 31.59375 8.109375 
Q 46.6875 8.109375 53.6875 14.9375 
Q 60.6875 21.78125 60.6875 36.53125 
Q 60.6875 51.171875 53.6875 57.984375 
Q 46.6875 64.796875 31.59375 64.796875 
z
M 9.8125 72.90625 
L 30.078125 72.90625 
Q 51.265625 72.90625 61.171875 64.09375 
Q 71.09375 55.28125 71.09375 36.53125 
Q 71.09375 17.671875 61.125 8.828125 
Q 51.171875 0 30.078125 0 
L 9.8125 0 
z
" id="DejaVuSans-68"/>
       <path d="M 9.8125 72.90625 
L 55.90625 72.90625 
L 55.90625 64.59375 
L 19.671875 64.59375 
L 19.671875 43.015625 
L 54.390625 43.015625 
L 54.390625 34.71875 
L 19.671875 34.71875 
L 19.671875 8.296875 
L 56.78125 8.296875 
L 56.78125 0 
L 9.8125 0 
z
" id="DejaVuSans-69"/>
       <path d="M 34.1875 63.1875 
L 20.796875 26.90625 
L 47.609375 26.90625 
z
M 28.609375 72.90625 
L 39.796875 72.90625 
L 67.578125 0 
L 57.328125 0 
L 50.6875 18.703125 
L 17.828125 18.703125 
L 11.1875 0 
L 0.78125 0 
z
" id="DejaVuSans-65"/>
       <path d="M 53.515625 70.515625 
L 53.515625 60.890625 
Q 47.90625 63.578125 42.921875 64.890625 
Q 37.9375 66.21875 33.296875 66.21875 
Q 25.25 66.21875 20.875 63.09375 
Q 16.5 59.96875 16.5 54.203125 
Q 16.5 49.359375 19.40625 46.890625 
Q 22.3125 44.4375 30.421875 42.921875 
L 36.375 41.703125 
Q 47.40625 39.59375 52.65625 34.296875 
Q 57.90625 29 57.90625 20.125 
Q 57.90625 9.515625 50.796875 4.046875 
Q 43.703125 -1.421875 29.984375 -1.421875 
Q 24.8125 -1.421875 18.96875 -0.25 
Q 13.140625 0.921875 6.890625 3.21875 
L 6.890625 13.375 
Q 12.890625 10.015625 18.65625 8.296875 
Q 24.421875 6.59375 29.984375 6.59375 
Q 38.421875 6.59375 43.015625 9.90625 
Q 47.609375 13.234375 47.609375 19.390625 
Q 47.609375 24.75 44.3125 27.78125 
Q 41.015625 30.8125 33.5 32.328125 
L 27.484375 33.5 
Q 16.453125 35.6875 11.515625 40.375 
Q 6.59375 45.0625 6.59375 53.421875 
Q 6.59375 63.09375 13.40625 68.65625 
Q 20.21875 74.21875 32.171875 74.21875 
Q 37.3125 74.21875 42.625 73.28125 
Q 47.953125 72.359375 53.515625 70.515625 
z
" id="DejaVuSans-83"/>
       <path d="M 31 75.875 
Q 24.46875 64.65625 21.28125 53.65625 
Q 18.109375 42.671875 18.109375 31.390625 
Q 18.109375 20.125 21.3125 9.0625 
Q 24.515625 -2 31 -13.1875 
L 23.1875 -13.1875 
Q 15.875 -1.703125 12.234375 9.375 
Q 8.59375 20.453125 8.59375 31.390625 
Q 8.59375 42.28125 12.203125 53.3125 
Q 15.828125 64.359375 23.1875 75.875 
z
" id="DejaVuSans-40"/>
       <path d="M 8.6875 72.90625 
L 18.609375 72.90625 
L 18.609375 28.609375 
Q 18.609375 16.890625 22.84375 11.734375 
Q 27.09375 6.59375 36.625 6.59375 
Q 46.09375 6.59375 50.34375 11.734375 
Q 54.59375 16.890625 54.59375 28.609375 
L 54.59375 72.90625 
L 64.5 72.90625 
L 64.5 27.390625 
Q 64.5 13.140625 57.4375 5.859375 
Q 50.390625 -1.421875 36.625 -1.421875 
Q 22.796875 -1.421875 15.734375 5.859375 
Q 8.6875 13.140625 8.6875 27.390625 
z
" id="DejaVuSans-85"/>
       <path d="M 64.40625 67.28125 
L 64.40625 56.890625 
Q 59.421875 61.53125 53.78125 63.8125 
Q 48.140625 66.109375 41.796875 66.109375 
Q 29.296875 66.109375 22.65625 58.46875 
Q 16.015625 50.828125 16.015625 36.375 
Q 16.015625 21.96875 22.65625 14.328125 
Q 29.296875 6.6875 41.796875 6.6875 
Q 48.140625 6.6875 53.78125 8.984375 
Q 59.421875 11.28125 64.40625 15.921875 
L 64.40625 5.609375 
Q 59.234375 2.09375 53.4375 0.328125 
Q 47.65625 -1.421875 41.21875 -1.421875 
Q 24.65625 -1.421875 15.125 8.703125 
Q 5.609375 18.84375 5.609375 36.375 
Q 5.609375 53.953125 15.125 64.078125 
Q 24.65625 74.21875 41.21875 74.21875 
Q 47.75 74.21875 53.53125 72.484375 
Q 59.328125 70.75 64.40625 67.28125 
z
" id="DejaVuSans-67"/>
       <path d="M 10.59375 45.40625 
L 73.1875 45.40625 
L 73.1875 37.203125 
L 10.59375 37.203125 
z
M 10.59375 25.484375 
L 73.1875 25.484375 
L 73.1875 17.1875 
L 10.59375 17.1875 
z
" id="DejaVuSans-61"/>
       <path d="M 8.015625 75.875 
L 15.828125 75.875 
Q 23.140625 64.359375 26.78125 53.3125 
Q 30.421875 42.28125 30.421875 31.390625 
Q 30.421875 20.453125 26.78125 9.375 
Q 23.140625 -1.703125 15.828125 -13.1875 
L 8.015625 -13.1875 
Q 14.5 -2 17.703125 9.0625 
Q 20.90625 20.125 20.90625 31.390625 
Q 20.90625 42.671875 17.703125 53.65625 
Q 14.5 64.65625 8.015625 75.875 
z
" id="DejaVuSans-41"/>
      </defs>
      <use xlink:href="#DejaVuSans-73"/>
      <use x="29.492188" xlink:href="#DejaVuSans-68"/>
      <use x="106.494141" xlink:href="#DejaVuSans-69"/>
      <use x="169.677734" xlink:href="#DejaVuSans-65"/>
      <use x="238.085938" xlink:href="#DejaVuSans-82"/>
      <use x="307.568359" xlink:href="#DejaVuSans-83"/>
      <use x="371.044922" xlink:href="#DejaVuSans-32"/>
      <use x="402.832031" xlink:href="#DejaVuSans-80"/>
      <use x="463.134766" xlink:href="#DejaVuSans-68"/>
      <use x="540.136719" xlink:href="#DejaVuSans-32"/>
      <use x="571.923828" xlink:href="#DejaVuSans-40"/>
      <use x="610.9375" xlink:href="#DejaVuSans-65"/>
      <use x="679.345703" xlink:href="#DejaVuSans-85"/>
      <use x="752.539062" xlink:href="#DejaVuSans-67"/>
      <use x="822.363281" xlink:href="#DejaVuSans-32"/>
      <use x="854.150391" xlink:href="#DejaVuSans-61"/>
      <use x="937.939453" xlink:href="#DejaVuSans-32"/>
      <use x="969.726562" xlink:href="#DejaVuSans-48"/>
      <use x="1033.349609" xlink:href="#DejaVuSans-46"/>
      <use x="1065.136719" xlink:href="#DejaVuSans-55"/>
      <use x="1128.759766" xlink:href="#DejaVuSans-50"/>
      <use x="1192.382812" xlink:href="#DejaVuSans-41"/>
     </g>
    </g>
   </g>
  </g>
 </g>
 <defs>
  <clipPath id="p67255dcbe6">
   <rect height="217.44" width="334.8" x="54" y="34.56"/>
  </clipPath>
 </defs>
</svg>
